<svg id="visual" viewBox="0 0 900 600" width="900" height="600" xmlns="http://www.w3.org/2000/svg" xmlns:xlink="http://www.w3.org/1999/xlink" version="1.1"><rect width="900" height="600" fill="#FFFFFF"></rect><g><g transform="translate(454 417)"><path d="M69.4 -80C88.4 -66.7 101.2 -43.4 103.9 -19.6C106.6 4.3 99.2 28.6 85.5 46.6C71.9 64.6 51.9 76.1 31 82.6C10.1 89.1 -11.7 90.6 -29.3 83.1C-46.9 75.5 -60.3 59 -71.1 40.8C-81.8 22.6 -90 2.6 -88.7 -17.5C-87.4 -37.7 -76.7 -58.1 -60.3 -71.9C-43.9 -85.7 -22 -92.7 1.6 -94.7C25.2 -96.6 50.4 -93.3 69.4 -80Z" fill="#00a1c9"></path></g><g transform="translate(131 454)"><path d="M64.4 -76.4C77.4 -65.8 77.9 -39.8 81 -15.3C84.1 9.2 89.8 32.2 82.6 50.5C75.4 68.9 55.2 82.7 33.8 88.6C12.4 94.5 -10.3 92.5 -27.4 82.9C-44.5 73.3 -56 56.2 -70.2 37.6C-84.3 19.1 -101 -0.8 -102 -21.8C-102.9 -42.9 -87.9 -64.9 -68.3 -74.5C-48.7 -84 -24.3 -81 0.7 -81.7C25.7 -82.5 51.3 -87.1 64.4 -76.4Z" fill="#00a1c9"></path></g><g transform="translate(874 251)"><path d="M42.1 -52.4C53.2 -41 59.7 -26.3 65.5 -9.2C71.2 7.8 76.2 27.4 69.3 40.7C62.4 54.1 43.7 61.2 25.9 65.1C8.1 68.9 -8.7 69.4 -22.7 63.7C-36.8 58 -48.1 46.2 -57.9 32C-67.7 17.9 -75.9 1.5 -73 -12.5C-70.1 -26.5 -55.9 -38.2 -41.9 -49C-27.9 -59.9 -13.9 -70 0.8 -70.9C15.6 -71.9 31.1 -63.7 42.1 -52.4Z" fill="#00a1c9"></path></g><g transform="translate(105 56)"><path d="M44.7 -50.6C57.1 -43 65.6 -28 69.4 -11.5C73.2 5.1 72.4 23.2 64.6 38C56.9 52.8 42.2 64.2 25.6 70.3C9 76.3 -9.6 76.9 -23.2 69.5C-36.9 62.1 -45.5 46.7 -51.2 32C-56.8 17.2 -59.4 3.1 -58.5 -11.7C-57.5 -26.5 -53 -42.1 -42.6 -50.1C-32.3 -58.1 -16.1 -58.6 0 -58.6C16.2 -58.6 32.4 -58.3 44.7 -50.6Z" fill="#00a1c9"></path></g><g transform="translate(483 83)"><path d="M37.8 -44.5C50.1 -34.7 61.9 -23.9 63.9 -11.4C65.9 1 58.1 15 49.6 27.7C41.2 40.3 32 51.6 19.7 57.6C7.3 63.6 -8.2 64.5 -21.7 59.6C-35.2 54.7 -46.6 44.1 -52.5 31.5C-58.4 18.8 -58.9 4.2 -56 -9.5C-53.2 -23.3 -47.1 -36.1 -37.2 -46.2C-27.4 -56.4 -13.7 -63.9 -0.5 -63.3C12.8 -62.8 25.5 -54.2 37.8 -44.5Z" fill="#00a1c9"></path></g></g></svg>