<svg width="756" height="178" viewBox="0 0 756 178" fill="none" xmlns="http://www.w3.org/2000/svg">
<path d="M51.785 138.265C45.1795 138.265 39.0459 137.107 33.3841 134.791C27.7223 132.389 22.7468 129.086 18.4575 124.883C14.254 120.593 10.9942 115.618 8.67801 109.956C6.4476 104.294 5.33239 98.2034 5.33239 91.6838C5.33239 85.1641 6.4476 79.0734 8.67801 73.4116C10.9942 67.7497 14.254 62.8171 18.4575 58.6136C22.7468 54.4102 27.6794 51.1074 33.2554 48.7055C38.9172 46.3035 45.0938 45.1025 51.785 45.1025C58.9909 45.1025 65.339 46.3035 70.8293 48.7055C76.3195 51.0217 81.1664 54.2386 85.3698 58.3563L73.5315 70.1946C71.0437 67.4495 67.9984 65.3049 64.3954 63.7607C60.7924 62.2166 56.589 61.4445 51.785 61.4445C47.5815 61.4445 43.7212 62.1737 40.204 63.6321C36.7726 65.0046 33.7701 67.0635 31.1966 69.8086C28.623 72.4679 26.65 75.6849 25.2774 79.4594C23.9049 83.1482 23.2186 87.2229 23.2186 91.6838C23.2186 96.2304 23.9049 100.348 25.2774 104.037C26.65 107.726 28.623 110.943 31.1966 113.688C33.7701 116.347 36.7726 118.406 40.204 119.864C43.7212 121.323 47.5815 122.052 51.785 122.052C56.8463 122.052 61.1785 121.28 64.7814 119.735C68.4702 118.191 71.5585 116.004 74.0462 113.173L85.8846 125.011C81.6811 129.215 76.7913 132.475 71.2153 134.791C65.6393 137.107 59.1625 138.265 51.785 138.265ZM96.2491 136.978V43.9444H113.106V136.978H96.2491ZM154.034 138.265C148.373 138.265 143.268 136.85 138.722 134.019C134.175 131.188 130.615 127.327 128.042 122.438C125.468 117.548 124.181 112.058 124.181 105.967C124.181 99.7905 125.468 94.2573 128.042 89.3676C130.615 84.4778 134.175 80.6175 138.722 77.7866C143.268 74.9557 148.373 73.5402 154.034 73.5402C158.495 73.5402 162.484 74.441 166.001 76.2425C169.519 78.0439 172.307 80.5746 174.365 83.8344C176.51 87.0085 177.668 90.6115 177.84 94.6433V117.033C177.668 121.151 176.51 124.797 174.365 127.971C172.307 131.145 169.519 133.676 166.001 135.563C162.484 137.364 158.495 138.265 154.034 138.265ZM157.123 122.695C161.841 122.695 165.658 121.151 168.575 118.063C171.492 114.889 172.95 110.814 172.95 105.838C172.95 102.578 172.264 99.7047 170.891 97.2169C169.604 94.6434 167.76 92.6703 165.358 91.2977C163.042 89.8394 160.297 89.1102 157.123 89.1102C154.034 89.1102 151.289 89.8394 148.887 91.2977C146.571 92.6703 144.727 94.6434 143.354 97.2169C142.067 99.7047 141.424 102.578 141.424 105.838C141.424 109.184 142.067 112.144 143.354 114.717C144.727 117.205 146.571 119.178 148.887 120.636C151.289 122.009 154.034 122.695 157.123 122.695ZM172.049 136.978V120.25L174.751 105.066L172.049 90.1396V74.827H188.777V136.978H172.049ZM225.05 138.394C221.533 138.394 218.059 137.922 214.627 136.978C211.282 136.035 208.194 134.748 205.363 133.118C202.532 131.402 200.087 129.343 198.028 126.941L208.065 116.776C210.21 119.178 212.697 120.979 215.528 122.18C218.359 123.381 221.49 123.982 224.922 123.982C227.667 123.982 229.726 123.596 231.098 122.824C232.557 122.052 233.286 120.894 233.286 119.349C233.286 117.634 232.514 116.304 230.97 115.36C229.511 114.417 227.581 113.645 225.179 113.044C222.777 112.358 220.246 111.629 217.587 110.857C215.013 109.999 212.526 108.927 210.124 107.64C207.722 106.267 205.749 104.423 204.205 102.107C202.746 99.7047 202.017 96.6164 202.017 92.8419C202.017 88.8958 202.961 85.4643 204.848 82.5477C206.821 79.631 209.609 77.3577 213.212 75.7277C216.815 74.0978 221.061 73.2829 225.951 73.2829C231.098 73.2829 235.731 74.1836 239.848 75.9851C244.052 77.7866 247.526 80.4888 250.271 84.0918L240.106 94.2573C238.218 91.9411 236.074 90.2683 233.672 89.2389C231.356 88.2095 228.825 87.6948 226.08 87.6948C223.592 87.6948 221.662 88.0808 220.289 88.8529C219.002 89.6249 218.359 90.6972 218.359 92.0698C218.359 93.6139 219.088 94.8149 220.547 95.6728C222.091 96.5306 224.064 97.3027 226.466 97.989C228.868 98.5895 231.356 99.3186 233.929 100.176C236.588 100.949 239.076 102.064 241.392 103.522C243.794 104.98 245.725 106.911 247.183 109.313C248.727 111.715 249.499 114.803 249.499 118.577C249.499 124.668 247.312 129.515 242.937 133.118C238.561 136.635 232.599 138.394 225.05 138.394ZM282.226 138.394C278.709 138.394 275.235 137.922 271.804 136.978C268.458 136.035 265.37 134.748 262.539 133.118C259.708 131.402 257.263 129.343 255.204 126.941L265.241 116.776C267.386 119.178 269.873 120.979 272.704 122.18C275.535 123.381 278.666 123.982 282.098 123.982C284.843 123.982 286.902 123.596 288.274 122.824C289.733 122.052 290.462 120.894 290.462 119.349C290.462 117.634 289.69 116.304 288.146 115.36C286.687 114.417 284.757 113.645 282.355 113.044C279.953 112.358 277.422 111.629 274.763 110.857C272.19 109.999 269.702 108.927 267.3 107.64C264.898 106.267 262.925 104.423 261.381 102.107C259.922 99.7047 259.193 96.6164 259.193 92.8419C259.193 88.8958 260.137 85.4643 262.024 82.5477C263.997 79.631 266.785 77.3577 270.388 75.7277C273.991 74.0978 278.237 73.2829 283.127 73.2829C288.274 73.2829 292.907 74.1836 297.024 75.9851C301.228 77.7866 304.702 80.4888 307.447 84.0918L297.282 94.2573C295.394 91.9411 293.25 90.2683 290.848 89.2389C288.532 88.2095 286.001 87.6948 283.256 87.6948C280.768 87.6948 278.838 88.0808 277.465 88.8529C276.179 89.6249 275.535 90.6972 275.535 92.0698C275.535 93.6139 276.264 94.8149 277.723 95.6728C279.267 96.5306 281.24 97.3027 283.642 97.989C286.044 98.5895 288.532 99.3186 291.105 100.176C293.764 100.949 296.252 102.064 298.568 103.522C300.97 104.98 302.901 106.911 304.359 109.313C305.903 111.715 306.675 114.803 306.675 118.577C306.675 124.668 304.488 129.515 300.113 133.118C295.738 136.635 289.775 138.394 282.226 138.394ZM316.498 80.4888L325.505 63.6321L330.91 62.0879C330.309 63.2889 329.623 64.2754 328.851 65.0475C328.079 65.7338 327.178 66.0769 326.149 66.0769C323.918 66.0769 321.859 65.1762 319.972 63.3747C318.171 61.4874 317.27 59.1283 317.27 56.2974C317.27 53.2092 318.299 50.5927 320.358 48.4481C322.417 46.3035 324.948 45.2312 327.95 45.2312C330.867 45.2312 333.398 46.3035 335.542 48.4481C337.687 50.5927 338.759 53.2092 338.759 56.2974C338.759 57.4984 338.502 58.9568 337.987 60.6725C337.472 62.3024 336.529 64.4041 335.156 66.9777L325.248 85.2499L316.498 80.4888Z" fill="white"/>
<path d="M361.878 136.978V46.5179H379.379V136.978H361.878ZM374.746 136.978V121.537H424.802V136.978H374.746ZM374.746 98.2463V83.3197H420.298V98.2463H374.746ZM374.746 61.9592V46.5179H424.158V61.9592H374.746ZM385.684 38.5399L379.25 30.5619L397.78 10.4882L408.588 23.6133L385.684 38.5399ZM466.069 138.265C459.721 138.265 454.016 136.85 448.955 134.019C443.894 131.188 439.905 127.327 436.988 122.438C434.071 117.548 432.613 112.058 432.613 105.967C432.613 99.7905 434.071 94.2573 436.988 89.3676C439.905 84.4778 443.894 80.6175 448.955 77.7866C454.102 74.8699 459.807 73.4116 466.069 73.4116C470.959 73.4116 475.463 74.3123 479.58 76.1138C483.698 77.9153 487.258 80.4888 490.26 83.8344L479.452 94.772C477.822 92.9705 475.849 91.598 473.532 90.6543C471.302 89.7107 468.814 89.2389 466.069 89.2389C462.981 89.2389 460.193 89.9681 457.705 91.4264C455.303 92.799 453.373 94.7291 451.915 97.2169C450.542 99.6189 449.856 102.493 449.856 105.838C449.856 109.098 450.542 112.015 451.915 114.588C453.373 117.076 455.303 119.049 457.705 120.508C460.193 121.88 462.981 122.566 466.069 122.566C468.9 122.566 471.431 122.095 473.661 121.151C475.977 120.122 477.95 118.663 479.58 116.776L490.518 127.713C487.344 131.145 483.698 133.761 479.58 135.563C475.463 137.364 470.959 138.265 466.069 138.265ZM541.884 136.978V101.335C541.884 97.6458 540.726 94.6434 538.41 92.3272C536.094 90.011 533.091 88.8529 529.403 88.8529C527.001 88.8529 524.856 89.3676 522.969 90.397C521.081 91.4264 519.58 92.8848 518.465 94.772C517.436 96.6593 516.921 98.8468 516.921 101.335L510.358 97.989C510.358 93.0992 511.388 88.8529 513.447 85.2499C515.505 81.5611 518.336 78.6873 521.939 76.6285C525.628 74.5696 529.832 73.5402 534.55 73.5402C539.268 73.5402 543.428 74.5696 547.031 76.6285C550.72 78.6873 553.594 81.5182 555.653 85.1212C557.712 88.7242 558.741 92.8848 558.741 97.6029V136.978H541.884ZM500.064 136.978V43.9444H516.921V136.978H500.064ZM602.044 138.265C595.524 138.265 589.734 136.892 584.673 134.147C579.611 131.316 575.579 127.456 572.577 122.566C569.66 117.677 568.202 112.101 568.202 105.838C568.202 99.6618 569.617 94.1715 572.448 89.3676C575.365 84.4778 579.311 80.6175 584.287 77.7866C589.262 74.8699 594.795 73.4116 600.886 73.4116C606.891 73.4116 612.167 74.7841 616.713 77.5292C621.346 80.1886 624.949 83.8773 627.522 88.5955C630.182 93.2279 631.511 98.5037 631.511 104.423C631.511 105.538 631.425 106.696 631.254 107.897C631.168 109.012 630.954 110.299 630.611 111.757L578.367 111.886V99.2757L622.761 99.1471L615.941 104.423C615.77 100.734 615.083 97.6458 613.882 95.1581C612.767 92.6703 611.094 90.783 608.864 89.4962C606.719 88.1237 604.06 87.4374 600.886 87.4374C597.54 87.4374 594.624 88.2095 592.136 89.7536C589.648 91.2119 587.718 93.3137 586.345 96.0588C585.059 98.7181 584.415 101.892 584.415 105.581C584.415 109.355 585.102 112.658 586.474 115.489C587.932 118.234 589.991 120.379 592.651 121.923C595.31 123.381 598.398 124.111 601.915 124.111C605.089 124.111 607.963 123.596 610.537 122.566C613.11 121.451 615.341 119.821 617.228 117.677L627.136 127.585C624.134 131.102 620.445 133.761 616.07 135.563C611.781 137.364 607.105 138.265 602.044 138.265ZM671.275 138.265C664.927 138.265 659.222 136.85 654.161 134.019C649.099 131.188 645.11 127.327 642.193 122.438C639.277 117.548 637.818 112.058 637.818 105.967C637.818 99.7905 639.277 94.2573 642.193 89.3676C645.11 84.4778 649.099 80.6175 654.161 77.7866C659.308 74.8699 665.012 73.4116 671.275 73.4116C676.164 73.4116 680.668 74.3123 684.786 76.1138C688.903 77.9153 692.464 80.4888 695.466 83.8344L684.657 94.772C683.027 92.9705 681.054 91.598 678.738 90.6543C676.508 89.7107 674.02 89.2389 671.275 89.2389C668.186 89.2389 665.398 89.9681 662.911 91.4264C660.509 92.799 658.578 94.7291 657.12 97.2169C655.748 99.6189 655.061 102.493 655.061 105.838C655.061 109.098 655.748 112.015 657.12 114.588C658.578 117.076 660.509 119.049 662.911 120.508C665.398 121.88 668.186 122.566 671.275 122.566C674.106 122.566 676.636 122.095 678.867 121.151C681.183 120.122 683.156 118.663 684.786 116.776L695.723 127.713C692.549 131.145 688.903 133.761 684.786 135.563C680.668 137.364 676.164 138.265 671.275 138.265ZM726.63 138.394C723.113 138.394 719.639 137.922 716.207 136.978C712.862 136.035 709.773 134.748 706.942 133.118C704.112 131.402 701.667 129.343 699.608 126.941L709.645 116.776C711.789 119.178 714.277 120.979 717.108 122.18C719.939 123.381 723.07 123.982 726.501 123.982C729.247 123.982 731.305 123.596 732.678 122.824C734.136 122.052 734.865 120.894 734.865 119.349C734.865 117.634 734.093 116.304 732.549 115.36C731.091 114.417 729.161 113.645 726.759 113.044C724.357 112.358 721.826 111.629 719.167 110.857C716.593 109.999 714.105 108.927 711.704 107.64C709.302 106.267 707.328 104.423 705.784 102.107C704.326 99.7047 703.597 96.6164 703.597 92.8419C703.597 88.8958 704.54 85.4643 706.428 82.5477C708.401 79.631 711.189 77.3577 714.792 75.7277C718.395 74.0978 722.641 73.2829 727.531 73.2829C732.678 73.2829 737.31 74.1836 741.428 75.9851C745.631 77.7866 749.106 80.4888 751.851 84.0918L741.685 94.2573C739.798 91.9411 737.653 90.2683 735.252 89.2389C732.935 88.2095 730.405 87.6948 727.66 87.6948C725.172 87.6948 723.242 88.0808 721.869 88.8529C720.582 89.6249 719.939 90.6972 719.939 92.0698C719.939 93.6139 720.668 94.8149 722.126 95.6728C723.671 96.5306 725.644 97.3027 728.046 97.989C730.448 98.5895 732.935 99.3186 735.509 100.176C738.168 100.949 740.656 102.064 742.972 103.522C745.374 104.98 747.304 106.911 748.763 109.313C750.307 111.715 751.079 114.803 751.079 118.577C751.079 124.668 748.891 129.515 744.516 133.118C740.141 136.635 734.179 138.394 726.63 138.394Z" fill="white"/>
</svg>
