<svg width="793" height="371" viewBox="0 0 793 371" fill="none" xmlns="http://www.w3.org/2000/svg">
<g clip-path="url(#clip0_45_693)">
<path d="M318.642 218.27L263.914 261.135C272.555 244.2 278.898 226.187 282.773 207.573L318.642 218.27Z" fill="white"/>
<path d="M326.961 297.567L256.148 352.859L168.889 323.383L199.007 304.484H202.305C215.021 304.78 227.515 301.112 238.053 293.989C244.764 288.961 250.57 282.828 255.223 275.853L326.961 297.567Z" fill="white"/>
<path d="M130.487 261.739L81.3081 290.41L0 259.89L80.1822 214.088L121.721 229.731C122.334 240.902 125.323 251.814 130.487 261.739Z" fill="white"/>
<path d="M333.275 13.6318C329.342 13.5997 325.533 15.01 322.569 17.596C319.605 20.1819 317.692 23.7643 317.19 27.6657C310.446 43.2195 301.903 57.93 291.736 71.4965C292.949 66.6167 293.557 61.6062 293.546 56.5779C293.546 25.3736 270.625 0 242.276 0C213.927 0 190.885 25.3736 190.885 56.5779C190.852 66.0364 193.028 75.372 197.239 83.8415C182.098 69.9847 169.137 53.9198 158.796 36.1906C159.735 34.1335 160.215 31.8971 160.204 29.6361C160.204 25.3701 158.509 21.2789 155.493 18.2625C152.476 15.246 148.385 13.5514 144.119 13.5514C139.853 13.5514 135.762 15.246 132.745 18.2625C129.729 21.2789 128.034 25.3701 128.034 29.6361C128.024 32.9062 129.036 36.0977 130.93 38.7641C130.93 77.287 150.834 111.145 190.202 139.293C184.543 145.119 178.527 150.585 172.187 155.66C155.499 169.774 134.75 187.346 126.305 204.276C122.608 212.252 121.029 221.046 121.721 229.81C122.312 241.036 125.301 252.006 130.487 261.979C136.731 274.454 146.271 284.982 158.073 292.42C170.421 299.867 184.44 304.098 198.847 304.725H202.145C214.861 305.021 227.355 301.353 237.893 294.229C244.604 289.202 250.41 283.069 255.063 276.094C258.318 271.379 261.273 266.463 263.91 261.376C272.551 244.441 278.894 226.428 282.769 207.814C284.016 202.104 284.981 196.515 285.624 191.167C288.56 167.522 286.308 148.783 279.391 136.72C306.293 121.641 339.025 102.218 348.314 35.3461C349.012 33.5656 349.367 31.6691 349.36 29.7567C349.365 27.641 348.953 25.5451 348.147 23.589C347.341 21.6329 346.157 19.855 344.663 18.3571C343.169 16.8592 341.394 15.6708 339.44 14.86C337.486 14.0491 335.391 13.6318 333.275 13.6318ZM242.276 9.61061C265.197 9.61061 283.855 30.6011 283.855 56.3769C283.984 64.4171 282.103 72.3622 278.381 79.4903C274.659 86.6183 269.214 92.7031 262.543 97.1918C256.512 100.309 249.896 102.13 243.12 102.54C240.314 102.7 237.498 102.578 234.716 102.178C215.535 98.1569 200.978 79.0563 200.978 56.2964C200.697 30.8022 219.355 9.81166 242.276 9.81166V9.61061ZM135.554 31.2847C135.514 30.7627 135.514 30.2385 135.554 29.7165C135.531 27.7208 136.197 25.7783 137.438 24.2155C138.679 22.6528 140.421 21.5652 142.37 21.1358C144.319 20.7063 146.357 20.9612 148.14 21.8575C149.923 22.7538 151.343 24.2368 152.161 26.0572C152.701 27.2009 152.976 28.4517 152.966 29.7165C152.942 31.8775 152.117 33.9527 150.65 35.5403C149.184 37.1279 147.181 38.1149 145.028 38.3101C142.876 38.5053 140.728 37.8948 139 36.597C137.272 35.2991 136.087 33.4062 135.675 31.2847H135.554ZM273.158 128.959L264.634 133.744L268.655 138.288C276.255 147.175 278.949 165.954 276.014 189.719C275.37 194.705 274.526 199.732 273.52 204.758C268.092 231.016 257.436 256.551 245.372 272.837C244.019 274.694 242.569 276.479 241.029 278.185C238.532 281.194 235.684 283.894 232.545 286.227C228.065 289.336 223.068 291.623 217.787 292.983C199.11 297.122 179.556 293.834 163.26 283.814C152.872 277.196 144.521 267.828 139.133 256.752C135.395 249.501 132.972 241.646 131.975 233.55C130.618 225.086 131.75 216.411 135.232 208.578C142.752 193.459 163.38 175.886 178.661 163.059C196.716 147.658 205.08 140.741 199.571 134.026L198.606 133.101C162.415 108.17 143.234 78.7346 140.942 45.4795C141.988 45.69 143.052 45.7977 144.119 45.8012C146.836 45.8092 149.509 45.1167 151.88 43.7906C177.615 84.6859 204.959 108.129 231.901 112.151H232.545C235.742 112.844 239.004 113.195 242.276 113.196C251.135 113.185 259.814 110.691 267.328 105.998C287.434 95.7039 305.81 73.8288 321.815 41.1366C323.306 42.6371 325.079 43.8286 327.032 44.6428C328.985 45.457 331.079 45.878 333.195 45.8816C334.33 45.8849 335.463 45.7635 336.572 45.5197C325.997 99.3632 298.009 115.006 273.158 128.959ZM337.176 37.4773C335.932 38.1134 334.551 38.4312 333.154 38.4022C330.851 38.4022 328.642 37.4871 327.013 35.8582C325.384 34.2293 324.469 32.0201 324.469 29.7165C324.468 28.1931 324.901 26.701 325.715 25.4138C326.461 24.0733 327.551 22.9563 328.873 22.1786C330.195 21.4009 331.701 20.9907 333.235 20.9905C335.305 20.995 337.306 21.7389 338.876 23.0881C340.447 24.4373 341.484 26.3032 341.8 28.3493C341.841 28.8041 341.841 29.2617 341.8 29.7165C341.815 31.3098 341.392 32.8766 340.576 34.2454C339.761 35.6143 338.584 36.7323 337.176 37.4773Z" fill="white"/>
<path d="M263.547 46.2434C263.547 52.2751 261.376 56.2963 257.797 56.2963C254.218 56.2963 252.047 52.2751 252.047 46.4042C252.047 40.5333 254.259 36.1904 257.797 36.1904C261.336 36.1904 263.547 40.2116 263.547 46.2434Z" fill="white"/>
<path d="M230.49 48.2532C230.49 54.3654 228.278 58.1453 224.699 58.1453C221.121 58.1453 218.949 54.3654 218.949 48.2532C218.949 42.1411 221.161 38.4014 224.699 38.4014C228.238 38.4014 230.49 42.2215 230.49 48.2532Z" fill="white"/>
<path d="M260.409 63.5343C249.887 67.9974 238.131 68.6236 227.194 65.3036L222.248 63.4538V68.7618C222.248 78.3322 226.752 96.5481 243.842 96.91H244.365C246.686 96.9575 248.993 96.5369 251.149 95.6734C253.305 94.8098 255.264 93.5209 256.911 91.8835C265.516 83.5195 265.596 67.475 265.596 66.8316V61.2422L260.409 63.5343ZM251.763 86.6962C250.731 87.6778 249.512 88.4431 248.179 88.9471C246.847 89.4512 245.427 89.684 244.003 89.6317C234.151 89.3502 231.054 79.7798 230.049 73.547C239.237 75.4745 248.761 75.0736 257.755 72.3808C257.263 77.6517 255.173 82.6464 251.763 86.6962Z" fill="white"/>
<path d="M168.732 323.384L81.3117 290.41L5.55273 335.648L98.6429 370.914L168.732 323.384Z" fill="white"/>
</g>
<path d="M440.786 165.722C434.18 165.722 428.047 164.564 422.385 162.248C416.723 159.846 411.748 156.543 407.458 152.34C403.255 148.051 399.995 143.075 397.679 137.413C395.449 131.751 394.333 125.661 394.333 119.141C394.333 112.621 395.449 106.531 397.679 100.869C399.995 95.207 403.255 90.2744 407.458 86.0709C411.748 81.8674 416.68 78.5647 422.256 76.1627C427.918 73.7607 434.095 72.5598 440.786 72.5598C447.992 72.5598 454.34 73.7607 459.83 76.1627C465.32 78.4789 470.167 81.6959 474.371 85.8136L462.532 97.6519C460.045 94.9068 456.999 92.7621 453.396 91.218C449.793 89.6739 445.59 88.9018 440.786 88.9018C436.582 88.9018 432.722 89.631 429.205 91.0893C425.774 92.4619 422.771 94.5207 420.198 97.2659C417.624 99.9252 415.651 103.142 414.278 106.917C412.906 110.605 412.22 114.68 412.22 119.141C412.22 123.688 412.906 127.805 414.278 131.494C415.651 135.183 417.624 138.4 420.198 141.145C422.771 143.804 425.774 145.863 429.205 147.321C432.722 148.78 436.582 149.509 440.786 149.509C445.847 149.509 450.179 148.737 453.782 147.193C457.471 145.649 460.559 143.461 463.047 140.63L474.885 152.469C470.682 156.672 465.792 159.932 460.216 162.248C454.64 164.564 448.163 165.722 440.786 165.722ZM485.25 164.436V71.4017H502.107V164.436H485.25ZM543.035 165.722C537.374 165.722 532.269 164.307 527.723 161.476C523.176 158.645 519.616 154.785 517.042 149.895C514.469 145.005 513.182 139.515 513.182 133.424C513.182 127.248 514.469 121.715 517.042 116.825C519.616 111.935 523.176 108.075 527.723 105.244C532.269 102.413 537.374 100.998 543.035 100.998C547.496 100.998 551.485 101.898 555.002 103.7C558.52 105.501 561.308 108.032 563.366 111.292C565.511 114.466 566.669 118.069 566.841 122.101V144.491C566.669 148.608 565.511 152.254 563.366 155.428C561.308 158.602 558.52 161.133 555.002 163.02C551.485 164.822 547.496 165.722 543.035 165.722ZM546.124 150.152C550.842 150.152 554.659 148.608 557.576 145.52C560.493 142.346 561.951 138.271 561.951 133.296C561.951 130.036 561.265 127.162 559.892 124.674C558.605 122.101 556.761 120.128 554.359 118.755C552.043 117.297 549.298 116.567 546.124 116.567C543.035 116.567 540.29 117.297 537.888 118.755C535.572 120.128 533.728 122.101 532.355 124.674C531.068 127.162 530.425 130.036 530.425 133.296C530.425 136.641 531.068 139.601 532.355 142.174C533.728 144.662 535.572 146.635 537.888 148.093C540.29 149.466 543.035 150.152 546.124 150.152ZM561.05 164.436V147.707L563.752 132.524L561.05 117.597V102.284H577.778V164.436H561.05ZM614.051 165.851C610.534 165.851 607.06 165.379 603.628 164.436C600.283 163.492 597.195 162.205 594.364 160.575C591.533 158.86 589.088 156.801 587.029 154.399L597.066 144.233C599.21 146.635 601.698 148.437 604.529 149.638C607.36 150.839 610.491 151.439 613.923 151.439C616.668 151.439 618.727 151.053 620.099 150.281C621.557 149.509 622.287 148.351 622.287 146.807C622.287 145.091 621.515 143.761 619.97 142.818C618.512 141.874 616.582 141.102 614.18 140.502C611.778 139.815 609.247 139.086 606.588 138.314C604.014 137.456 601.527 136.384 599.125 135.097C596.723 133.724 594.75 131.88 593.206 129.564C591.747 127.162 591.018 124.074 591.018 120.299C591.018 116.353 591.962 112.922 593.849 110.005C595.822 107.088 598.61 104.815 602.213 103.185C605.816 101.555 610.062 100.74 614.952 100.74C620.099 100.74 624.732 101.641 628.849 103.442C633.053 105.244 636.527 107.946 639.272 111.549L629.107 121.715C627.219 119.398 625.075 117.726 622.673 116.696C620.356 115.667 617.826 115.152 615.081 115.152C612.593 115.152 610.663 115.538 609.29 116.31C608.003 117.082 607.36 118.155 607.36 119.527C607.36 121.071 608.089 122.272 609.548 123.13C611.092 123.988 613.065 124.76 615.467 125.446C617.869 126.047 620.356 126.776 622.93 127.634C625.589 128.406 628.077 129.521 630.393 130.979C632.795 132.438 634.725 134.368 636.184 136.77C637.728 139.172 638.5 142.26 638.5 146.035C638.5 152.125 636.313 156.972 631.937 160.575C627.562 164.092 621.6 165.851 614.051 165.851ZM671.227 165.851C667.71 165.851 664.236 165.379 660.804 164.436C657.459 163.492 654.371 162.205 651.54 160.575C648.709 158.86 646.264 156.801 644.205 154.399L654.242 144.233C656.387 146.635 658.874 148.437 661.705 149.638C664.536 150.839 667.667 151.439 671.099 151.439C673.844 151.439 675.903 151.053 677.275 150.281C678.734 149.509 679.463 148.351 679.463 146.807C679.463 145.091 678.691 143.761 677.147 142.818C675.688 141.874 673.758 141.102 671.356 140.502C668.954 139.815 666.423 139.086 663.764 138.314C661.191 137.456 658.703 136.384 656.301 135.097C653.899 133.724 651.926 131.88 650.382 129.564C648.923 127.162 648.194 124.074 648.194 120.299C648.194 116.353 649.138 112.922 651.025 110.005C652.998 107.088 655.786 104.815 659.389 103.185C662.992 101.555 667.238 100.74 672.128 100.74C677.275 100.74 681.908 101.641 686.025 103.442C690.229 105.244 693.703 107.946 696.448 111.549L686.283 121.715C684.395 119.398 682.251 117.726 679.849 116.696C677.533 115.667 675.002 115.152 672.257 115.152C669.769 115.152 667.839 115.538 666.466 116.31C665.18 117.082 664.536 118.155 664.536 119.527C664.536 121.071 665.265 122.272 666.724 123.13C668.268 123.988 670.241 124.76 672.643 125.446C675.045 126.047 677.533 126.776 680.106 127.634C682.765 128.406 685.253 129.521 687.569 130.979C689.971 132.438 691.902 134.368 693.36 136.77C694.904 139.172 695.676 142.26 695.676 146.035C695.676 152.125 693.489 156.972 689.114 160.575C684.738 164.092 678.776 165.851 671.227 165.851ZM705.499 107.946L714.506 91.0893L719.911 89.5452C719.31 90.7462 718.624 91.7327 717.852 92.5048C717.08 93.1911 716.179 93.5342 715.15 93.5342C712.919 93.5342 710.86 92.6335 708.973 90.832C707.172 88.9447 706.271 86.5856 706.271 83.7547C706.271 80.6664 707.3 78.05 709.359 75.9054C711.418 73.7607 713.949 72.6884 716.951 72.6884C719.868 72.6884 722.398 73.7607 724.543 75.9054C726.688 78.05 727.76 80.6664 727.76 83.7547C727.76 84.9557 727.503 86.414 726.988 88.1297C726.473 89.7597 725.53 91.8614 724.157 94.4349L714.249 112.707L705.499 107.946Z" fill="white"/>
<path d="M398.837 301.478V211.018H416.337V301.478H398.837ZM411.705 301.478V286.037H461.76V301.478H411.705ZM411.705 262.746V247.819H457.257V262.746H411.705ZM411.705 226.459V211.018H461.117V226.459H411.705ZM422.642 203.04L416.209 195.062L434.738 174.988L445.547 188.113L422.642 203.04ZM503.028 302.765C496.68 302.765 490.975 301.349 485.914 298.518C480.852 295.688 476.863 291.827 473.947 286.937C471.03 282.048 469.572 276.557 469.572 270.467C469.572 264.29 471.03 258.757 473.947 253.867C476.863 248.978 480.852 245.117 485.914 242.286C491.061 239.37 496.765 237.911 503.028 237.911C507.917 237.911 512.421 238.812 516.539 240.614C520.657 242.415 524.217 244.989 527.219 248.334L516.41 259.272C514.78 257.47 512.807 256.098 510.491 255.154C508.261 254.21 505.773 253.739 503.028 253.739C499.939 253.739 497.151 254.468 494.664 255.926C492.262 257.299 490.331 259.229 488.873 261.717C487.501 264.119 486.814 266.992 486.814 270.338C486.814 273.598 487.501 276.515 488.873 279.088C490.331 281.576 492.262 283.549 494.664 285.007C497.151 286.38 499.939 287.066 503.028 287.066C505.859 287.066 508.389 286.594 510.62 285.651C512.936 284.621 514.909 283.163 516.539 281.276L527.476 292.213C524.302 295.645 520.657 298.261 516.539 300.063C512.421 301.864 507.917 302.765 503.028 302.765ZM578.843 301.478V265.834C578.843 262.146 577.685 259.143 575.369 256.827C573.052 254.511 570.05 253.353 566.361 253.353C563.959 253.353 561.815 253.867 559.927 254.897C558.04 255.926 556.539 257.385 555.424 259.272C554.394 261.159 553.879 263.347 553.879 265.834L547.317 262.489C547.317 257.599 548.346 253.353 550.405 249.75C552.464 246.061 555.295 243.187 558.898 241.128C562.587 239.069 566.79 238.04 571.508 238.04C576.226 238.04 580.387 239.069 583.99 241.128C587.679 243.187 590.553 246.018 592.611 249.621C594.67 253.224 595.7 257.385 595.7 262.103V301.478H578.843ZM537.023 301.478V208.444H553.879V301.478H537.023ZM639.003 302.765C632.483 302.765 626.693 301.392 621.631 298.647C616.57 295.816 612.538 291.956 609.536 287.066C606.619 282.176 605.16 276.6 605.16 270.338C605.16 264.162 606.576 258.671 609.407 253.867C612.324 248.978 616.27 245.117 621.245 242.286C626.221 239.37 631.754 237.911 637.845 237.911C643.85 237.911 649.125 239.284 653.672 242.029C658.304 244.688 661.907 248.377 664.481 253.095C667.14 257.728 668.47 263.003 668.47 268.923C668.47 270.038 668.384 271.196 668.212 272.397C668.127 273.512 667.912 274.799 667.569 276.257L615.326 276.386V263.775L659.72 263.647L652.9 268.923C652.728 265.234 652.042 262.146 650.841 259.658C649.726 257.17 648.053 255.283 645.823 253.996C643.678 252.623 641.019 251.937 637.845 251.937C634.499 251.937 631.582 252.709 629.094 254.253C626.607 255.712 624.677 257.813 623.304 260.559C622.017 263.218 621.374 266.392 621.374 270.081C621.374 273.855 622.06 277.158 623.433 279.989C624.891 282.734 626.95 284.879 629.609 286.423C632.269 287.881 635.357 288.61 638.874 288.61C642.048 288.61 644.922 288.096 647.495 287.066C650.069 285.951 652.299 284.321 654.187 282.176L664.095 292.085C661.092 295.602 657.404 298.261 653.029 300.063C648.739 301.864 644.064 302.765 639.003 302.765ZM708.233 302.765C701.885 302.765 696.18 301.349 691.119 298.518C686.058 295.688 682.069 291.827 679.152 286.937C676.235 282.048 674.777 276.557 674.777 270.467C674.777 264.29 676.235 258.757 679.152 253.867C682.069 248.978 686.058 245.117 691.119 242.286C696.266 239.37 701.971 237.911 708.233 237.911C713.123 237.911 717.627 238.812 721.744 240.614C725.862 242.415 729.422 244.989 732.425 248.334L721.616 259.272C719.986 257.47 718.013 256.098 715.697 255.154C713.466 254.21 710.978 253.739 708.233 253.739C705.145 253.739 702.357 254.468 699.869 255.926C697.467 257.299 695.537 259.229 694.079 261.717C692.706 264.119 692.02 266.992 692.02 270.338C692.02 273.598 692.706 276.515 694.079 279.088C695.537 281.576 697.467 283.549 699.869 285.007C702.357 286.38 705.145 287.066 708.233 287.066C711.064 287.066 713.595 286.594 715.825 285.651C718.141 284.621 720.114 283.163 721.744 281.276L732.682 292.213C729.508 295.645 725.862 298.261 721.744 300.063C717.627 301.864 713.123 302.765 708.233 302.765ZM763.589 302.893C760.072 302.893 756.597 302.422 753.166 301.478C749.82 300.534 746.732 299.248 743.901 297.618C741.07 295.902 738.625 293.843 736.566 291.441L746.603 281.276C748.748 283.678 751.236 285.479 754.067 286.68C756.897 287.881 760.029 288.482 763.46 288.482C766.205 288.482 768.264 288.096 769.637 287.323C771.095 286.551 771.824 285.393 771.824 283.849C771.824 282.133 771.052 280.804 769.508 279.86C768.05 278.917 766.119 278.144 763.717 277.544C761.315 276.858 758.785 276.129 756.125 275.356C753.552 274.499 751.064 273.426 748.662 272.14C746.26 270.767 744.287 268.923 742.743 266.606C741.285 264.204 740.555 261.116 740.555 257.342C740.555 253.396 741.499 249.964 743.386 247.047C745.359 244.131 748.147 241.857 751.75 240.228C755.353 238.598 759.6 237.783 764.489 237.783C769.637 237.783 774.269 238.683 778.387 240.485C782.59 242.286 786.064 244.989 788.81 248.592L778.644 258.757C776.757 256.441 774.612 254.768 772.21 253.739C769.894 252.709 767.363 252.195 764.618 252.195C762.13 252.195 760.2 252.581 758.828 253.353C757.541 254.125 756.897 255.197 756.897 256.57C756.897 258.114 757.627 259.315 759.085 260.173C760.629 261.03 762.602 261.802 765.004 262.489C767.406 263.089 769.894 263.818 772.467 264.676C775.127 265.448 777.615 266.564 779.931 268.022C782.333 269.48 784.263 271.41 785.721 273.812C787.265 276.214 788.037 279.303 788.037 283.077C788.037 289.168 785.85 294.015 781.475 297.618C777.1 301.135 771.138 302.893 763.589 302.893Z" fill="white"/>
<defs>
<clipPath id="clip0_45_693">
<rect width="349.36" height="370.913" fill="white"/>
</clipPath>
</defs>
</svg>
