<svg width="30" height="30" viewBox="0 0 30 30" fill="none" xmlns="http://www.w3.org/2000/svg"><g clip-path="url(#a)"><path fill-rule="evenodd" clip-rule="evenodd" d="M0 30h30V19.219h-9.794c0 3.027 2.367 5.097 5.035 5.097 1.859 0 4.017-.96 4.705-1.53v2.818c-.13.047-.264.098-.402.15-.994.377-2.211.838-4.424.838-5.425 0-7.914-3.297-7.914-8.273 0-2.218.687-4.114 1.891-5.477h-4.542v13.383h-2.88V12.842H6.559v13.383h-2.88V12.842H0V30Zm24.372-19.416c2.848 0 4.62 1.161 5.628 3.045V0H0v10.598h3.678v-1.44c0-3.802.98-6.282 5.238-6.282.736 0 1.349.092 1.93.184l-.12 2.33c-.339-.124-.89-.185-1.38-.185-2.482 0-2.788 1.592-2.788 3.708v1.685h5.118v-1.44c0-3.802.98-6.282 5.238-6.282.736 0 1.349.092 1.932.184l-.123 2.33c-.339-.124-.89-.185-1.379-.185-2.482 0-2.789 1.592-2.789 3.708v1.685h9.531l.103-.006c.06-.004.12-.008.183-.008Zm3.746 6.535h-7.912c.208-1.978 1.347-4.256 4.105-4.256 2.428 0 3.807 1.918 3.807 4.256ZM24.064 2.181c0-.195-.06-.264-.195-.264-.156 0-.205.069-.205.264 0 .122.054.3.122.522.024.076.049.158.074.245h.02l.01-.037c.1-.33.174-.572.174-.73Zm-.894-.186c0-.36.311-.642.738-.642.388 0 .69.272.69.642 0 .331-.534 1.604-.729 1.915-.195-.281-.7-1.565-.7-1.915Zm-.67 5.842c-.449.068-.837.243-.837.73h4.548c0-.487-.417-.632-.962-.74-.184-.048-1.107-.097-1.361-.097-.165 0-1.195.058-1.388.107Zm3.79-.408c.64.456.64 1.069.64 1.827h-5.987c0-.758 0-1.35.641-1.847.036-.405-.203-.672-.485-.986-.341-.38-.744-.83-.797-1.676-.02-.797.564-1.702 1.429-1.702 1.062 0 1.54.772 1.832 1.242.127.205.218.352.306.352.054 0 .118-.113.212-.28.262-.462.755-1.335 1.908-1.314 1.058.02 1.535.796 1.535 1.78 0 .578-.367 1.041-.703 1.465-.312.395-.597.754-.531 1.14Zm-1.894-2.57c-.18.31-.327.562-.527.558-.225.015-.399-.249-.611-.572-.321-.488-.73-1.11-1.537-1.11-.602 0-.73.73-.73.895 0 .634.377 1.098.718 1.518.281.347.538.663.538 1.019a8.322 8.322 0 0 1 1.573-.126c.564 0 1.235.058 1.79.126 0-.411.264-.732.547-1.076.326-.396.677-.822.677-1.452 0-.642-.389-.904-.982-.904-.798 0-1.17.635-1.456 1.125Z" fill="currentColor"/></g><defs><clipPath id="a"><path fill="currentColor" d="M0 0h30v30H0z"/></clipPath></defs></svg>