<svg width="278" height="134" viewBox="0 0 278 134" fill="none" xmlns="http://www.w3.org/2000/svg">
<path fill-rule="evenodd" clip-rule="evenodd" d="M141.223 1.35543C79.7544 7.7333 40.6714 22.9871 16.7286 49.9457C10.4011 57.0701 3.53805 69.8084 1.36017 78.4683C-3.31393 97.0604 4.4379 117.813 18.796 125.149C31.3977 131.587 43.3986 130.713 63.0316 121.928C75.1033 116.527 82.3206 114.818 92.9716 114.837C103.168 114.856 108.225 115.84 129.766 121.995C165.509 132.206 180.792 134.645 204.186 133.866C220.287 133.33 227.9 131.81 240.589 126.598C258.425 119.271 272.348 103.554 276.467 86.0993C280.214 70.2176 277.062 52.5623 267.335 34.9512C254.901 12.4406 219.47 -0.310527 170.229 0.005747C160.851 0.065508 147.798 0.673231 141.223 1.35543Z" fill="#61AFDD"/>
<path d="M45.8371 46.735C46.6017 46.735 46.9839 47.8818 46.9839 50.1754H48.1307L49.8509 49.0286L50.4243 49.602L47.5573 81.7125C49.9859 80.5657 56.4844 79.2278 67.053 77.6987H67.6264V78.2721C54.247 80.4533 47.5573 82.1735 47.5573 83.4327L53.8648 81.7125V82.2859L64.7594 79.9923V80.5657L65.3328 79.9923H65.9062L66.4796 80.5657L69.3466 79.9923H71.6402L75.654 80.5657V81.1391C75.654 82.2859 72.787 83.2416 67.053 84.0061V84.5795L67.6264 84.0061H68.1998L72.2136 84.5795L72.787 84.0061V85.7263L53.8648 90.3135L41.8233 94.9007H40.1031L37.8095 92.0337H37.2361V91.4603C37.2361 90.4934 38.0006 89.92 39.5297 89.7401V88.0199L37.8095 85.7263L40.1031 59.9232H40.6765V62.2168L40.1031 66.2306H41.2499L40.1031 73.6849L40.6765 74.2583L40.1031 76.5519V79.4189H40.6765L42.9701 49.0286C43.7347 49.0286 44.1169 48.4552 44.1169 47.3084L44.6903 46.735H45.8371ZM104.56 47.0723L107.326 48.9949C106.517 52.3903 105.055 54.0206 102.941 53.8856L87.9653 54.5602L87.8978 55.707L90.7311 55.9094L94.2053 55.5721L94.7449 56.213L95.3183 56.2467L99.3659 55.9094L100.513 56.0106L100.479 56.584L87.1558 57.9669L86.1102 65.3874L86.6836 65.4211L102.267 64.1731L102.773 64.7803L102.739 65.3537L101.592 65.2525V65.8259L105.538 66.7029L105.505 67.2763C104.673 69.4125 99.186 71.1439 89.0446 72.4706L83.2769 72.673L83.8166 73.2464L81.0507 80.532H80.4773L80.8146 75.3713L80.2412 75.3376L79.1282 83.2978C90.5737 81.7687 98.6576 81.1616 103.38 81.4764L106.179 82.2522L106.146 83.399L104.999 83.3315L105.505 83.9386L105.403 85.6589C104.302 87.098 101.963 87.7051 98.3877 87.4802L98.354 88.0536L102.941 88.3572L102.84 89.504L76.16 93.4166L75.5866 93.3829C73.7427 92.9782 72.8207 92.3823 72.8207 91.5952V91.4941L72.9219 89.7739L74.5072 83.5676L73.9676 82.9605L75.1144 82.9942L74.912 85.8612L75.4854 85.9287C75.7102 84.0173 76.16 83.0954 76.8346 83.1629L76.2949 82.522L76.6996 76.8217L75.5528 76.7205L74.7771 79.5538L75.4179 79.0141L75.9913 79.0479L75.7552 82.4883L75.1818 82.4208L75.283 80.7343L74.7096 80.7006L74.6421 81.8474L74.0687 81.8137L74.1362 80.6669L75.9576 70.9865L75.3842 70.9528L76.6996 68.187L76.16 67.5798L76.1937 67.0064L77.4417 57.3261L77.9814 57.9332L78.5548 57.9669L78.6222 56.8201L78.2512 53.9194L79.1619 48.7925L79.2631 47.0723L79.8365 47.1397L80.3762 47.7469L80.9833 47.2072L81.5567 47.2747L82.0964 47.8481L82.7035 47.3084L84.4237 47.4433L104.56 47.0723ZM75.8564 72.1333L75.5866 76.1471L76.16 76.1809L76.4298 72.2008L75.8564 72.1333ZM94.7787 72.8754H95.3521L95.2846 73.4488L84.8959 74.4944L84.3562 73.8535L84.39 73.3138L89.5843 73.0777L89.5506 73.6511L94.7787 72.8754ZM135.187 46.9036H137.48L139.2 48.0504L143.214 47.477C149.848 47.477 155.964 51.2997 161.563 58.9451L164.43 64.6791L163.857 65.2525L164.43 68.1195V70.9865C164.43 80.813 156.402 88.2673 140.347 93.3492L134.613 93.9226C134.613 92.9557 133.849 92.3823 132.32 92.2024V94.496H130.599V91.0556L130.026 90.4822L130.599 89.9088V89.3354C128.306 87.7613 127.159 86.4234 127.159 85.3216C128.306 68.0071 130.217 55.3922 132.893 47.477H133.466L134.04 48.0504L135.187 46.9036ZM132.893 52.6377L130.026 69.2663V69.8397H130.599L133.466 53.7845V52.6377H132.893ZM142.067 56.6515C142.067 57.416 141.303 57.7983 139.774 57.7983C138.245 64.769 137.098 72.7967 136.333 81.8811C138.56 81.8811 144.294 79.9698 153.535 76.1471V75.5737H152.389C155.447 72.4481 156.976 69.1988 156.976 65.8259V64.1057C156.976 59.9007 154.109 57.416 148.375 56.6515H142.067ZM153.535 56.6515V57.2249L155.829 58.3717V57.7983L154.109 56.6515H153.535ZM158.696 64.6791L158.123 71.5599H159.269V69.8397L159.843 67.5461L159.269 64.6791H158.696ZM162.71 69.2663L159.843 78.4407V79.0141H160.416L163.283 70.4131V69.2663H162.71ZM156.976 73.2801L155.829 75.5737H156.402L157.549 73.2801H156.976ZM153.535 83.6014C154.435 83.4664 155.773 82.3196 157.549 80.1609V79.5875L153.535 83.6014ZM140.347 87.0418V87.6152H142.641L145.508 86.4684V85.895H144.934L140.347 87.0418ZM135.76 87.6152L136.333 89.3354H137.48L138.627 88.1886V87.6152H138.054L136.333 88.1886L135.76 87.6152ZM129.453 91.0556H130.026V91.629L128.879 92.7758H128.306V92.2024L129.453 91.0556ZM196.979 47.0723L199.745 48.9949C198.935 52.3903 197.474 54.0206 195.36 53.8856L180.384 54.5602L180.317 55.707L183.15 55.9094L186.624 55.5721L187.164 56.213L187.737 56.2467L191.785 55.9094L192.932 56.0106L192.898 56.584L179.575 57.9669L178.529 65.3874L179.102 65.4211L194.685 64.1731L195.191 64.7803L195.158 65.3537L194.011 65.2525V65.8259L197.957 66.7029L197.924 67.2763C197.092 69.4125 191.605 71.1439 181.464 72.4706L175.696 72.673L176.235 73.2464L173.47 80.532H172.896L173.234 75.3713L172.66 75.3376L171.547 83.2978C182.993 81.7687 191.076 81.1616 195.799 81.4764L198.598 82.2522L198.564 83.399L197.418 83.3315L197.924 83.9386L197.822 85.6589C196.721 87.098 194.382 87.7051 190.807 87.4802L190.773 88.0536L195.36 88.3572L195.259 89.504L168.579 93.4166L168.005 93.3829C166.162 92.9782 165.24 92.3823 165.24 91.5952V91.4941L165.341 89.7739L166.926 83.5676L166.386 82.9605L167.533 82.9942L167.331 85.8612L167.904 85.9287C168.129 84.0173 168.579 83.0954 169.253 83.1629L168.714 82.522L169.119 76.8217L167.972 76.7205L167.196 79.5538L167.837 79.0141L168.41 79.0479L168.174 82.4883L167.601 82.4208L167.702 80.7343L167.128 80.7006L167.061 81.8474L166.488 81.8137L166.555 80.6669L168.376 70.9865L167.803 70.9528L169.119 68.187L168.579 67.5798L168.613 67.0064L169.861 57.3261L170.4 57.9332L170.974 57.9669L171.041 56.8201L170.67 53.9194L171.581 48.7925L171.682 47.0723L172.255 47.1397L172.795 47.7469L173.402 47.2072L173.976 47.2747L174.515 47.8481L175.122 47.3084L176.843 47.4433L196.979 47.0723ZM168.275 72.1333L168.005 76.1471L168.579 76.1809L168.849 72.2008L168.275 72.1333ZM187.198 72.8754H187.771L187.703 73.4488L177.315 74.4944L176.775 73.8535L176.809 73.3138L182.003 73.0777L181.969 73.6511L187.198 72.8754ZM191.717 29.398C191.83 29.5105 191.886 29.6791 191.886 29.904C192.111 29.904 192.257 30.0614 192.324 30.3762C192.324 30.7584 191.11 32.0402 188.682 34.2213C188.682 34.3787 188.277 34.8285 187.467 35.5705C187.063 36.0427 186.86 36.38 186.86 36.5824C189.694 33.6592 191.515 31.9839 192.324 31.5567H192.426L192.324 31.894L192.493 32.0627C192.493 32.3999 192.167 32.8497 191.515 33.4118L191.886 33.5805L192.493 33.142L192.561 33.2095V33.3444C192.426 33.4793 192.324 33.7154 192.257 34.0527C190.256 35.9191 188.839 37.3694 188.007 38.4038C186.343 40.2027 185.432 41.6193 185.275 42.6537L185.14 42.8561C184.331 42.7437 183.926 42.4289 183.926 41.9117L183.69 41.7093V41.5744L183.757 41.3383H183.69C183.128 41.3383 182.723 40.7199 182.475 39.4831C183.038 38.1564 183.971 36.8073 185.275 35.4356C186.242 34.2663 187.985 32.5798 190.503 30.3762L191.717 29.398ZM189.896 35.1658V35.2332H189.997L190.503 34.6598H190.436L189.896 35.1658ZM189.525 35.5031V35.5705L189.694 35.4356V35.3681L189.525 35.5031ZM188.918 36.1439V36.2451L189.154 36.009V35.9415L188.918 36.1439ZM188.682 36.3126L188.614 36.5149H188.783V36.3126H188.682ZM186.118 37.4594L186.658 36.886H186.557C186.264 37.0209 186.118 37.212 186.118 37.4594ZM222.209 45.2846L222.141 46.4314H220.421L220.387 47.0048H220.961L231.889 46.4314H234.183L234.149 47.0048L232.968 48.1516L233.508 48.725L233.474 49.8718C233.407 51.8506 232.789 52.9974 231.619 53.3122L232.159 55.0325L231.484 56.7527L230.945 56.1793H230.371C225.02 56.4491 222.332 56.8314 222.31 57.3261L221.737 56.7527C215.193 57.787 211.876 59.6984 211.786 62.4867L211.618 67.0739L225.413 65.9271L225.986 66.5005L225.953 67.0739H223.086L223.052 67.6473C224.963 67.6473 225.897 68.0296 225.852 68.7941V69.3675C225.784 71.2788 225.368 72.2345 224.604 72.2345H221.163L221.129 72.8079H225.143L225.11 73.9547C225.087 74.6068 220.252 75.9448 210.606 77.9685L209.796 84.2759L210.37 84.8493V85.4227L209.763 85.9961L209.729 86.5695L210.235 88.2898H209.661L210.167 90.01C210.302 91.629 208.964 94.5972 206.154 98.9146L201.566 98.3411L202.342 92.6071C200.88 92.6071 200.15 91.8988 200.15 90.4822V90.3135C200.734 89.3466 201.431 83.3203 202.241 72.2345H203.388L202.848 71.6611L203.59 67.0739L204.13 67.6473H204.703L205.513 61.9133L205.614 59.6197C203.703 59.6197 202.747 59.2374 202.747 58.4729L203.961 56.7527C202.432 56.7527 201.701 56.1793 201.769 55.0325C201.881 51.592 202.511 49.8718 203.658 49.8718C205.569 49.8718 206.558 48.9162 206.626 47.0048H207.199L207.739 47.5782L208.953 46.4314H210.673L212.326 48.1516L222.209 45.2846ZM223.794 48.1516L223.76 48.725H225.481L231.822 48.1516V47.5782H228.381L223.794 48.1516ZM218.397 54.459V55.0325H218.971L230.439 53.8856L230.473 53.3122L228.786 52.7388L228.179 53.3122H227.605L227.066 52.7388L218.397 54.459ZM203.185 77.3951L202.949 83.7025H203.523L203.759 77.3951H203.185ZM204.029 93.7539L203.927 96.0475H204.501L204.602 93.7539H204.029ZM245.482 47.2747C245.392 48.4215 246.112 48.9949 247.641 48.9949L248.686 51.2885L248.079 51.8619H248.653C245.909 59.957 244.234 69.3225 243.627 79.9586L243.425 83.399L243.998 83.9724L243.964 84.5458L243.357 85.1192H243.931L243.323 85.6926L243.661 89.7064L243.593 90.8532C241.547 93.3267 240.479 95.238 240.389 96.5872H238.095L235.33 95.4404L236.139 91.4266L233.947 89.133L234.992 80.532L235.566 70.2107L236.814 68.4905L236.949 66.1969L236.409 65.6235L236.443 65.0501H237.589L237.623 64.4767L237.083 63.9033L239.411 53.0087H238.837L239.445 52.4353L239.613 48.9949L239.074 48.4215L239.107 47.8481L245.482 47.2747ZM239.141 57.5959L238.939 61.6097H239.512L239.714 57.5959H239.141ZM238.264 63.3299L238.062 66.7703H238.635L238.837 63.3299H238.264ZM237.387 68.4905L237.218 71.9309H237.792L237.96 68.4905H237.387ZM237.286 91.4266L237.117 94.2936L238.298 93.1468L238.433 91.4266H237.286Z" fill="white"/>
</svg>
