<svg width="561" height="596" viewBox="0 0 561 596" fill="none" xmlns="http://www.w3.org/2000/svg">
<g clip-path="url(#clip0_45_628)">
<path d="M511.558 350.421L423.694 419.24C437.568 392.051 447.75 363.132 453.972 333.249L511.558 350.421Z" fill="white"/>
<path d="M524.921 477.729L411.234 566.496L271.144 519.175L319.498 488.833H324.791C345.207 489.309 365.265 483.42 382.183 471.983C392.957 463.912 402.279 454.066 409.75 442.868L524.921 477.729Z" fill="white"/>
<path d="M209.491 420.208L130.536 466.238L0 417.239L128.729 343.707L195.417 368.82C196.402 386.755 201.2 404.274 209.491 420.208Z" fill="white"/>
<path d="M535.057 21.8852C528.742 21.8337 522.628 24.0978 517.869 28.2495C513.111 32.4011 510.039 38.1525 509.234 44.4159C498.406 69.3868 484.69 93.0038 468.368 114.784C470.316 106.95 471.292 98.9057 471.274 90.8331C471.274 40.7361 434.476 0 388.962 0C343.449 0 306.457 40.7361 306.457 90.8331C306.404 106.018 309.897 121.006 316.657 134.603C292.349 112.357 271.542 86.5656 254.94 58.1022C256.446 54.7997 257.217 51.2092 257.199 47.5793C257.199 40.7305 254.479 34.1623 249.636 29.3195C244.793 24.4767 238.225 21.7561 231.376 21.7561C224.527 21.7561 217.959 24.4767 213.116 29.3195C208.273 34.1623 205.553 40.7305 205.553 47.5793C205.536 52.8293 207.162 57.9531 210.201 62.2339C210.201 124.081 242.157 178.438 305.36 223.629C296.275 232.981 286.616 241.756 276.438 249.904C249.646 272.564 216.334 300.776 202.777 327.955C196.841 340.76 194.307 354.879 195.417 368.949C196.366 386.972 201.165 404.583 209.491 420.595C219.515 440.623 234.831 457.524 253.778 469.466C273.603 481.422 296.11 488.214 319.239 489.221H324.533C344.949 489.696 365.007 483.808 381.925 472.371C392.699 464.3 402.021 454.454 409.492 443.255C414.717 435.685 419.461 427.794 423.694 419.627C437.568 392.438 447.75 363.519 453.972 333.636C455.973 324.469 457.523 315.495 458.556 306.909C463.268 268.949 459.653 238.865 448.549 219.497C491.739 195.288 544.289 164.106 559.202 56.7465C560.322 53.888 560.892 50.8432 560.88 47.7729C560.889 44.3764 560.227 41.0115 558.933 37.871C557.639 34.7305 555.738 31.8762 553.34 29.4714C550.941 27.0667 548.091 25.1588 544.954 23.857C541.817 22.5552 538.453 21.8852 535.057 21.8852ZM388.962 15.4294C425.76 15.4294 455.715 49.1287 455.715 90.5103C455.923 103.419 452.902 116.174 446.927 127.618C440.951 139.061 432.211 148.83 421.499 156.037C411.818 161.041 401.197 163.966 390.318 164.623C385.812 164.879 381.292 164.685 376.825 164.042C346.031 157.586 322.661 126.921 322.661 90.3812C322.209 49.4514 352.164 15.7522 388.962 15.7522V15.4294ZM217.625 50.2261C217.561 49.3881 217.561 48.5464 217.625 47.7084C217.589 44.5044 218.657 41.3857 220.65 38.8769C222.643 36.368 225.439 34.6219 228.568 33.9325C231.697 33.243 234.968 33.6522 237.831 35.0912C240.694 36.5301 242.974 38.9111 244.288 41.8336C245.155 43.6698 245.596 45.6779 245.579 47.7084C245.54 51.1778 244.216 54.5095 241.862 57.0583C239.508 59.607 236.291 61.1916 232.836 61.505C229.381 61.8184 225.932 60.8383 223.157 58.7547C220.383 56.671 218.481 53.632 217.819 50.2261H217.625ZM438.543 207.038L424.856 214.72L431.312 222.015C443.514 236.282 447.839 266.431 443.126 304.585C442.093 312.59 440.738 320.66 439.124 328.729C430.408 370.886 413.301 411.88 393.933 438.026C391.76 441.008 389.433 443.874 386.961 446.612C382.952 451.444 378.378 455.779 373.339 459.524C366.147 464.515 358.124 468.187 349.646 470.37C319.662 477.016 288.268 471.737 262.106 455.65C245.428 445.024 232.021 429.985 223.371 412.203C217.37 400.563 213.479 387.951 211.879 374.953C209.701 361.365 211.518 347.437 217.109 334.862C229.181 310.589 262.299 282.377 286.831 261.783C315.818 237.057 329.246 225.953 320.402 215.172L318.852 213.687C260.75 173.661 229.956 126.405 226.276 73.0151C227.955 73.3531 229.663 73.5261 231.376 73.5316C235.738 73.5445 240.029 72.4328 243.836 70.3037C285.153 135.959 329.052 173.596 372.306 180.052H373.339C378.472 181.166 383.71 181.729 388.962 181.731C403.185 181.712 417.118 177.709 429.182 170.175C461.461 153.648 490.964 118.529 516.658 66.0428C519.053 68.4518 521.899 70.3646 525.034 71.6718C528.169 72.979 531.531 73.6549 534.928 73.6607C536.751 73.666 538.57 73.4712 540.351 73.0797C523.372 159.523 478.44 184.636 438.543 207.038ZM541.319 60.1681C539.323 61.1892 537.105 61.6994 534.863 61.6529C531.165 61.6529 527.618 60.1838 525.003 57.5686C522.388 54.9535 520.919 51.4067 520.919 47.7084C520.918 45.2627 521.612 42.8672 522.92 40.8007C524.117 38.6485 525.867 36.8553 527.99 35.6067C530.112 34.3582 532.53 33.6996 534.992 33.6993C538.316 33.7064 541.528 34.9007 544.05 37.0668C546.571 39.233 548.235 42.2285 548.743 45.5134C548.81 46.2435 548.81 46.9782 548.743 47.7084C548.768 50.2664 548.088 52.7818 546.779 54.9794C545.469 57.177 543.58 58.972 541.319 60.1681Z" fill="white"/>
<path d="M423.113 74.2416C423.113 83.9253 419.627 90.3811 413.881 90.3811C408.136 90.3811 404.649 83.9253 404.649 74.4998C404.649 65.0743 408.2 58.1021 413.881 58.1021C419.562 58.1021 423.113 64.5579 423.113 74.2416Z" fill="white"/>
<path d="M370.047 77.47C370.047 87.2829 366.496 93.3513 360.75 93.3513C355.005 93.3513 351.519 87.2829 351.519 77.47C351.519 67.6572 355.069 61.6533 360.75 61.6533C366.431 61.6533 370.047 67.7863 370.047 77.47Z" fill="white"/>
<path d="M418.078 102.002C401.184 109.167 382.311 110.172 364.753 104.842L356.812 101.872V110.394C356.812 125.759 364.043 155.004 391.48 155.585H392.319C396.046 155.661 399.751 154.986 403.211 153.599C406.672 152.213 409.818 150.144 412.461 147.515C426.276 134.087 426.406 108.328 426.406 107.295V98.3218L418.078 102.002ZM404.198 139.187C402.539 140.763 400.583 141.991 398.443 142.801C396.304 143.61 394.024 143.984 391.738 143.9C375.921 143.448 370.95 128.083 369.336 118.077C384.087 121.171 399.378 120.527 413.817 116.204C413.027 124.666 409.671 132.685 404.198 139.187Z" fill="white"/>
<path d="M270.886 519.175L130.536 466.238L8.90918 538.866L158.361 595.483L270.886 519.175Z" fill="white"/>
</g>
<defs>
<clipPath id="clip0_45_628">
<rect width="560.88" height="595.483" fill="white"/>
</clipPath>
</defs>
</svg>
