<svg width="397" height="188" viewBox="0 0 397 188" fill="none" xmlns="http://www.w3.org/2000/svg">
<g clip-path="url(#clip0_24_3295)">
<path fill-rule="evenodd" clip-rule="evenodd" d="M389.004 236.265L304.336 382.913L304.337 382.913L221.703 526.039L186.537 512.122L181.492 512.403L165 500.627L149.337 488.391L145.225 482.824L126.276 479.209L114.849 471.672L79.6771 459.067L69.109 444.513L58.4288 441.54L48.7203 433.305L30.8178 425.599L14.6175 416.245L-1.03742 404.484L-6.21253 395.391L-9.15921 391.06L-15.5899 385.282L-30.8418 375.912L-49.135 369.859L-83.1532 350.782L-101.172 343.196L-106.399 334.356L-117.843 330.754L-149.365 309.549L-164.363 302.017L-172.491 301.456L-174.147 310.831L-186.885 303.289L-195.639 300.395L-206.494 293.658L-216.107 291.113L-222.869 287.209L-228.016 283.111L-234.099 276.405L-236.635 274.941L-244.753 276.64L-247.597 271.806L-256.521 268.719L-258.563 265.099L-263.283 264.815L-266.5 257.699L-272.711 255.85L-276.93 252.992L-279.708 247.068L-285.857 241.451L-302.626 228.202L-312.151 224.205L-321.28 217.243L-236.613 70.5956L-236.613 70.5954L-153.979 -72.5309L-118.813 -58.614L-113.768 -58.8942L-97.2759 -47.1185L-81.6131 -34.8824L-77.5017 -29.3156L-58.552 -25.7004L-47.1254 -18.1641L-11.9536 -5.55864L-1.38544 8.99523L9.29477 11.9684L19.0033 20.2032L36.9058 27.9096L53.1061 37.2628L68.761 49.0247L73.9361 58.1171L76.8827 62.4479L83.3135 68.2268L98.5654 77.596L116.859 83.6497L150.877 102.727L168.896 110.312L174.122 119.153L185.567 122.755L217.089 143.959L232.086 151.491L240.215 152.052L241.871 142.677L254.609 150.22L263.363 153.114L274.218 159.85L283.831 162.395L290.592 166.299L295.739 170.397L301.823 177.103L304.359 178.567L312.477 176.868L315.321 181.703L324.245 184.789L326.287 188.41L331.007 188.693L334.223 195.809L340.435 197.658L344.654 200.517L347.432 206.441L353.581 212.057L370.349 225.307L379.875 229.304L389.004 236.265Z" fill="#70D8FF"/>
<path d="M383.969 231.314L389.645 235.155L387.612 238.676L381.774 235.118C381.524 231.968 377.762 229.045 376.353 228.231C374.943 227.418 372.417 228.213 371.832 228.251C371.246 228.288 365.89 225.196 363.939 223.694C361.987 222.191 362.34 219.953 362.058 219.79C361.776 219.627 357.363 217.831 356.436 217.484C355.694 217.206 354.251 215.409 353.623 214.545C354.182 212.013 352.291 211.209 351.275 211.124C345.632 209.18 345.459 207.202 344.95 203.527C344.44 199.852 343.069 199.624 342.928 199.542C340.182 199.61 336.58 198.82 335.121 198.416C331.213 196.723 334.059 191.792 330.78 189.335C329.791 188.595 326.965 189.324 325.57 189.896C325.998 188.829 324.345 183.554 321.862 183.623C319.876 183.679 316.137 183.449 314.516 183.327C315.113 180.666 313.671 177.955 312.544 177.304C311.416 176.653 307.496 177.583 307.008 178.429C306.52 179.274 303.246 180.388 303.49 179.966C303.685 179.628 302.487 178.448 301.864 177.9C301.945 177.759 301.559 177.386 299.364 177.021C297.51 176.326 295.516 170.666 294.388 170.015C293.486 169.495 292.278 169.548 291.786 169.64C291.752 166.314 290.301 166.028 289.58 166.3C289.202 166.52 287.797 166.849 285.2 166.401C281.952 165.841 284.409 162.563 283.378 162.72C282.348 162.876 278.212 162.554 275.187 161.935C272.162 161.315 271.387 158.426 268.248 156.05C265.11 153.675 259.536 154.214 256.593 153.453C253.649 152.693 249.714 147.791 246.857 145.578C244 143.365 241.94 143.679 241.821 143.234C241.725 142.879 240.903 140.701 240.504 139.656C244.849 139.16 254.624 146.556 258.968 150.316C262.537 150.123 269.512 153.211 272.553 154.779C274.89 159.584 281.882 160.103 285.086 159.761C284.7 163.295 288.239 163.523 290.057 163.195C293.644 162.711 293.601 165.303 293.131 166.66C295.282 165.798 296.232 166.822 296.438 167.442C299.847 172.604 300.969 174.566 302.14 174.491C303.311 174.416 303.935 174.964 304.358 175.208C304.696 175.403 305.059 176.489 305.198 177.008C305.406 177.19 306.008 177.362 306.754 176.591C307.5 175.82 310.664 174.591 312.154 174.074C315.515 173.46 316.16 178.202 316.062 180.65L319.412 180.706C323.272 180.531 324.826 181.202 325.121 181.56C326.426 182.164 327.142 185.545 327.337 187.16C330.552 185.823 334.992 185.945 334.667 191.392C334.341 196.838 342.419 195.867 342.982 196.193C345.793 196.012 346.315 197.365 346.224 198.064C348.067 205.289 350.237 206.955 351.092 206.885C356.591 208.558 356.317 210.528 355.493 211.305L358.751 214.125C359.623 214.177 362.674 215.576 364.091 216.269C364.637 220.791 371.037 223.66 374.168 224.529C380.132 223.314 383.187 228.546 383.969 231.314Z" fill="#70D8FF"/>
<path d="M240.828 153.742C241.131 153.542 240.66 150.452 240.741 150.312C235.494 150.287 230.423 148.111 228.544 147.026C222.294 147.174 219.832 143.561 219.382 141.736C213.571 141.386 215.263 137.48 207.971 133.833C203.179 129.113 198.027 127.404 196.051 127.139C195.411 123.56 191.736 121.808 189.979 121.38C178.178 120.727 175.496 117.713 175.63 116.288C171.997 116.069 172.226 109.815 170.719 108.193C169.212 106.572 166.902 108.619 166.761 108.538C166.62 108.457 165.195 106.694 162.701 104.503C160.706 102.751 154.898 100.875 152.244 100.156C149.785 97.3844 140.601 92.8712 136.317 90.961C133.726 87.9624 136.143 88.9827 127.193 86.257C118.243 83.5314 121.317 82.113 117.929 81.4717C115.218 80.9585 111.053 78.1907 109.309 76.8709C108.576 76.9482 106.866 77.0007 105.899 76.5926C104.932 76.1845 104.344 75.3813 104.17 75.0307C103.845 75.5942 102.108 75.7812 101.28 75.8042C93.3602 72.9219 88.4599 67.0875 88.178 66.9247C87.8961 66.762 88.422 66.5021 85.7385 66.2676C83.055 66.0331 83.1691 62.9059 83.0282 62.8245C77.5798 62.4963 77.9976 59.1687 77.5586 57.9761C77.1196 56.7835 73.5201 53.5784 72.1758 51.6753C70.8315 49.7722 69.8616 45.2677 68.6365 43.8091C67.6564 42.6422 60.9387 39.2396 57.7023 37.6841C57.3285 35.4021 48.4651 31.224 46.6707 30.7515C44.8763 30.279 43.9982 27.8937 43.3314 28.0722C42.6646 28.2507 36.7666 24.4699 29.1444 22.6988C23.0467 21.282 16.6435 16.358 14.2042 14.0731C12.8603 7.28665 6.31673 8.20445 4.03433 8.57718C2.2084 8.87535 0.747272 7.86898 0.244968 7.32853C-0.363967 6.5387 -1.72273 4.87768 -2.28651 4.55217C-2.99124 4.1453 -4.28656 0.204341 -5.0509 -0.424781C-5.66239 -0.928089 -6.50193 -0.949486 -6.8453 -0.897292C-7.21361 -4.49087 -8.25984 -5.28274 -10.3468 -8.1781C-12.0163 -10.4944 -19.5139 -10.5281 -23.0541 -10.2554C-24.7778 -13.1289 -28.3287 -13.4886 -31.1097 -14.5307C-33.3345 -15.3644 -34.4798 -16.2886 -34.7743 -16.6464C-37.3096 -16.9206 -43.4818 -18.5557 -47.8878 -22.9027C-52.2938 -27.2497 -57.3529 -27.9917 -59.3317 -27.8194C-64.2648 -30.6675 -71.8763 -30.1785 -73.752 -30.5101C-75.6277 -30.8417 -79.1297 -33.2392 -78.967 -33.521C-78.8043 -33.8027 -78.8095 -37.3744 -79.0913 -37.5372C-79.3169 -37.6674 -79.872 -37.487 -80.1214 -37.3805C-81.856 -39.5841 -87.5334 -44.2895 -90.1554 -46.3668L-104.028 -54.5638C-107.384 -54.9992 -111.274 -59.3733 -112.799 -61.506L-114.631 -62.5639L-114.875 -62.1413C-114.035 -55.4581 -125.896 -66.8138 -126.601 -67.2207C-127.165 -67.5462 -129.232 -67.1119 -130.195 -66.8541L-129.794 -66.2468C-129.593 -65.9432 -130.472 -63.4451 -129.946 -63.705C-129.525 -63.9129 -128.48 -63.4223 -128.011 -63.1511C-117.353 -53.6171 -117.543 -56.544 -117.136 -57.2483C-116.729 -57.9527 -116.583 -59.1829 -115.797 -58.9169C-115.168 -58.7041 -111.126 -54.5297 -109.184 -52.4691C-108.175 -52.2626 -105.986 -51.5622 -105.297 -50.4128C-104.435 -48.9761 -92.1452 -43.5712 -91.9068 -42.6822C-91.6683 -41.7932 -85.1686 -37.1015 -83.7213 -35.7023C-82.5634 -34.5831 -82.2089 -33.7648 -82.1764 -33.4956C-82.021 -33.6563 -81.6093 -33.9571 -81.206 -33.8745C-80.7018 -33.7712 -81.2171 -31.2513 -81.2443 -29.5765C-81.2661 -28.2367 -77.6828 -26.9568 -75.8884 -26.4843C-72.332 -27.4363 -61.7878 -24.5417 -60.9204 -24.4166C-60.053 -24.2914 -57.5862 -25.309 -55.3745 -23.2808C-53.1629 -21.2525 -44.9284 -16.3105 -44.164 -15.6814C-43.3997 -15.0523 -38.0761 -13.857 -36.1408 -13.3031C-34.2054 -12.7492 -35.6366 -13.1999 -33.8478 -11.4158C-32.0589 -9.63164 -29.6734 -10.5084 -28.0417 -9.75411C-26.7363 -9.1507 -25.474 -7.58296 -25.0061 -6.87449C-18.8257 -7.81418 -17.6602 -6.57781 -13.7461 -6.19628C-9.83197 -5.81475 -8.95995 2.76539 -8.87862 2.62452C-8.79729 2.48365 -7.00288 2.95615 -6.23854 3.58528C-5.4742 4.2144 -4.43906 7.62949 -4.2385 7.93311C-4.03794 8.23673 -3.95661 8.09586 -2.69364 10.1398C-1.6833 11.775 -0.111462 12.0689 0.548116 12.0115C2.09681 11.716 5.81116 11.2935 8.27888 11.9669C11.3635 12.8087 11.8132 16.2614 12.2522 17.454C12.6912 18.6466 17.1418 21.0284 17.4237 21.1911C20.1081 24.0933 23.6162 25.3299 25.0348 25.5854C29.4064 26.6067 38.2225 30.194 42.0841 31.8601C41.9755 33.6757 51.3108 36.0601 53.9236 38.6956C56.0138 40.804 56.7098 41.6816 56.7966 41.8569C61.5943 43.3121 65.6383 46.3982 66.8037 47.6346C67.9692 48.8709 68.3264 55.0877 69.8985 55.6197C71.1562 56.0453 74.1303 60.442 75.4602 62.5871C75.6007 67.5517 78.7938 66.5781 78.9944 66.8818C79.1949 67.1854 80.6913 66.5467 80.6478 67.2729C80.6044 67.9991 81.5258 69.6581 82.8161 70.0274C84.1063 70.3966 85.3749 71.1289 85.6568 71.2916C86.9577 73.921 94.3303 77.4262 96.0216 78.4027L98.6996 79.9489C99.7144 80.5347 101.197 79.6377 101.811 79.1159C101.755 81.0367 105.08 80.9406 106.75 80.6524C107.695 82.4003 110.527 83.3337 111.824 83.5819C113.161 83.9783 116.246 85.2331 117.885 87.0811C119.934 89.391 123.767 89.9134 124.997 90.0604C126.228 90.2075 130.944 91.8035 132.836 93.0836C134.728 94.3637 133.514 95.1652 134.462 95.1494C135.411 95.1337 146.546 101.562 148.134 103.043C149.405 104.227 151.927 105.045 153.029 105.306C159.483 106.627 163.449 110.695 164.625 112.564C165.792 111.584 167.186 111.6 167.737 111.731C169.634 111.699 170.42 116.849 170.756 118.545C171.092 120.242 171.899 120.145 172.344 120.026C172.7 119.93 173.338 120.474 173.613 120.758C174.989 124.558 183.847 125.165 188.065 125.346C192.283 125.527 193.432 130.698 193.855 130.942C194.277 131.186 197.969 131.627 198.875 132.338C199.599 132.906 203.723 136.201 205.694 137.778C206.381 137.673 208.429 138.38 211.126 142.041C213.823 145.702 216.048 145.884 216.823 145.518C217.586 148.363 219.349 149.606 220.135 149.872C221.219 151.249 226.126 150.889 226.548 151.133C229.443 153.931 240.524 153.943 240.828 153.742Z" fill="#70D8FF"/>
<path d="M-132.31 -63.1914C-132.348 -63.7767 -131.784 -63.4512 -131.562 -63.5108L-136.495 -66.3589C-137.425 -67.4596 -139.703 -69.5259 -141.368 -68.9848C-143.034 -68.4437 -143.605 -69.7755 -143.683 -70.509C-144.216 -70.3662 -149.962 -73.1953 -152.769 -74.6277L-155.046 -70.6832C-154.585 -69.8537 -145.798 -66.8463 -145.76 -66.261C-145.729 -65.7927 -145.4 -65.3647 -145.239 -65.2092C-144.58 -65.2667 -143.002 -65.3077 -141.97 -65.0123C-140.68 -64.6431 -139.433 -63.5476 -138.972 -62.7181C-138.512 -61.8886 -133.194 -59.3817 -132.527 -59.5602C-131.86 -59.7387 -132.38 -60.7904 -132.212 -62.3838C-132.044 -63.9771 -132.272 -62.606 -132.31 -63.1914Z" fill="#70D8FF"/>
<path d="M-71.1245 243.878C-81.2614 314.235 14.9496 366.126 64.3222 383.277L170.822 198.814C61.4372 116.608 -143.689 -31.0362 -89.1145 36.0374C-20.8959 119.879 -58.4533 155.931 -71.1245 243.878Z" fill="#35A6DA"/>
<path d="M-94.5998 237.397C-122.601 302.734 -43.0989 377.758 0.152465 407.103L150.766 256.489C66.3848 148.773 -93.5391 -46.9306 -58.1838 31.9825C-13.9896 130.624 -59.598 155.726 -94.5998 237.397Z" fill="#35A6DA" stroke="white" stroke-width="3"/>
<path d="M-79.8133 242.672C-102.273 295.078 -6.68697 327.269 17.2137 335.872L116.993 257.985C49.3115 171.587 -78.9625 14.6144 -50.6042 77.9101C-15.1563 157.03 -51.7385 177.164 -79.8133 242.672Z" fill="#35A6DA" stroke="white" stroke-opacity="0.5" stroke-width="3"/>
</g>
<defs>
<clipPath id="clip0_24_3295">
<rect width="397" height="188" fill="white"/>
</clipPath>
</defs>
</svg>
