<svg width="554" height="319" viewBox="0 0 554 319" fill="none" xmlns="http://www.w3.org/2000/svg">
<g clip-path="url(#clip0_24_3352)">
<path fill-rule="evenodd" clip-rule="evenodd" d="M20.8993 314.567L114.468 476.633L114.467 476.633L205.789 634.807L244.652 619.427L250.228 619.737L268.454 606.723L285.764 593.201L290.308 587.049L311.25 583.053L323.878 574.725L362.747 560.794L374.426 544.71L386.23 541.424L396.959 532.323L416.744 523.807L434.647 513.47L451.948 500.472L457.667 490.423L460.924 485.637L468.03 479.251L484.886 468.897L505.102 462.206L542.697 441.124L562.611 432.74L568.387 422.971L581.034 418.99L615.87 395.556L632.445 387.232L641.428 386.612L643.258 396.973L657.335 388.638L667.009 385.439L679.006 377.994L689.629 375.182L697.102 370.868L702.79 366.338L709.513 358.928L712.315 357.31L721.288 359.188L724.43 353.844L734.293 350.434L736.549 346.432L741.765 346.119L745.32 338.255L752.184 336.212L756.847 333.052L759.918 326.506L766.713 320.299L785.244 305.656L795.771 301.239L805.86 293.546L712.291 131.48L712.292 131.479L620.97 -26.6948L582.107 -11.3148L576.531 -11.6244L558.305 1.38936L540.995 14.9119L536.452 21.064L515.51 25.0593L502.882 33.388L464.012 47.3187L452.333 63.4027L440.53 66.6884L429.8 75.789L410.016 84.3056L392.112 94.6423L374.811 107.641L369.092 117.689L365.836 122.475L358.729 128.862L341.873 139.216L321.657 145.906L284.062 166.989L264.149 175.372L258.373 185.142L245.725 189.123L210.889 212.556L194.315 220.88L185.331 221.5L183.501 211.14L169.424 219.475L159.75 222.673L147.754 230.118L137.13 232.93L129.657 237.245L123.969 241.774L117.246 249.185L114.444 250.803L105.472 248.925L102.329 254.268L92.4667 257.679L90.2102 261.68L84.9939 261.993L81.439 269.858L74.5749 271.901L69.912 275.06L66.8417 281.607L60.0463 287.814L41.5153 302.457L30.9882 306.874L20.8993 314.567Z" fill="#70D8FF"/>
<path d="M799.928 298.379L806.201 294.135L803.954 290.243L797.502 294.176C797.226 297.656 793.069 300.887 791.511 301.786C789.954 302.686 787.161 301.807 786.514 301.765C785.867 301.724 779.948 305.141 777.792 306.801C775.635 308.462 776.025 310.935 775.713 311.115C775.402 311.295 770.525 313.28 769.5 313.664C768.681 313.971 767.086 315.957 766.391 316.912C767.01 319.71 764.92 320.598 763.797 320.693C757.56 322.84 757.369 325.027 756.806 329.088C756.243 333.149 754.728 333.402 754.572 333.492C751.538 333.417 747.556 334.29 745.945 334.736C741.625 336.607 744.771 342.056 741.146 344.772C740.054 345.59 736.931 344.784 735.389 344.152C735.862 345.332 734.035 351.161 731.291 351.084C729.096 351.023 724.965 351.277 723.173 351.412C723.833 354.353 722.239 357.348 720.993 358.068C719.747 358.787 715.415 357.759 714.876 356.825C714.337 355.891 710.718 354.659 710.987 355.126C711.203 355.5 709.879 356.804 709.19 357.409C709.28 357.565 708.854 357.977 706.428 358.381C704.379 359.149 702.175 365.403 700.929 366.123C699.932 366.698 698.597 366.639 698.053 366.538C698.015 370.213 696.412 370.53 695.615 370.229C695.198 369.985 693.645 369.622 690.774 370.118C687.186 370.737 689.9 374.359 688.762 374.186C687.623 374.013 683.052 374.369 679.709 375.053C676.366 375.738 675.509 378.931 672.041 381.556C668.572 384.182 662.413 383.586 659.16 384.426C655.907 385.267 651.557 390.684 648.4 393.129C645.243 395.575 642.966 395.229 642.835 395.72C642.729 396.113 641.82 398.52 641.379 399.674C646.182 400.222 656.984 392.048 661.784 387.893C665.729 388.106 673.437 384.694 676.798 382.961C679.381 377.65 687.108 377.078 690.649 377.455C690.222 373.55 694.134 373.298 696.143 373.661C700.107 374.195 700.059 371.33 699.54 369.831C701.917 370.784 702.967 369.652 703.194 368.967C706.962 363.263 708.202 361.094 709.496 361.177C710.79 361.26 711.479 360.655 711.947 360.385C712.32 360.169 712.721 358.969 712.875 358.396C713.105 358.194 713.77 358.003 714.595 358.856C715.419 359.708 718.916 361.066 720.562 361.638C724.277 362.316 724.989 357.075 724.881 354.37L728.584 354.308C732.849 354.502 734.567 353.76 734.892 353.364C736.335 352.697 737.127 348.961 737.342 347.176C740.895 348.653 745.802 348.519 745.442 342.499C745.082 336.48 754.009 337.553 754.632 337.193C757.738 337.393 758.315 335.897 758.215 335.125C760.251 327.141 762.649 325.299 763.594 325.377C769.671 323.529 769.369 321.35 768.458 320.492L772.059 317.376C773.022 317.318 776.394 315.772 777.96 315.007C778.563 310.009 785.636 306.839 789.097 305.878C795.687 307.221 799.064 301.438 799.928 298.379Z" fill="#70D8FF"/>
<path d="M641.737 384.107C642.073 384.328 641.552 387.743 641.642 387.898C635.842 387.925 630.239 390.33 628.162 391.53C621.255 391.366 618.534 395.358 618.037 397.375C611.615 397.762 613.484 402.079 605.426 406.109C600.131 411.325 594.437 413.215 592.252 413.507C591.545 417.463 587.485 419.399 585.543 419.872C572.501 420.593 569.537 423.924 569.684 425.499C565.67 425.741 565.923 432.653 564.257 434.445C562.592 436.237 560.039 433.974 559.884 434.064C559.728 434.154 558.152 436.101 555.396 438.523C553.192 440.46 546.773 442.532 543.84 443.327C541.122 446.39 530.973 451.378 526.238 453.489C523.375 456.803 526.047 455.675 516.156 458.687C506.264 461.7 509.662 463.267 505.917 463.976C502.921 464.543 498.318 467.602 496.391 469.06C495.581 468.975 493.692 468.917 492.623 469.368C491.554 469.819 490.904 470.706 490.712 471.094C490.352 470.471 488.433 470.265 487.518 470.239C478.766 473.424 473.35 479.872 473.039 480.052C472.727 480.232 473.308 480.519 470.342 480.778C467.377 481.038 467.503 484.494 467.347 484.584C461.326 484.946 461.788 488.624 461.303 489.942C460.817 491.26 456.84 494.802 455.354 496.905C453.868 499.008 452.796 503.986 451.442 505.598C450.359 506.888 442.935 510.648 439.359 512.367C438.946 514.889 429.15 519.506 427.167 520.029C425.184 520.551 424.214 523.187 423.477 522.99C422.74 522.792 416.222 526.971 407.798 528.928C401.059 530.494 393.983 535.935 391.287 538.461C389.802 545.96 382.571 544.946 380.048 544.534C378.03 544.205 376.416 545.317 375.86 545.914C375.187 546.787 373.686 548.623 373.063 548.982C372.284 549.432 370.852 553.787 370.008 554.483C369.332 555.039 368.404 555.062 368.025 555.005C367.618 558.976 366.461 559.851 364.155 563.051C362.31 565.611 354.024 565.648 350.112 565.347C348.207 568.522 344.283 568.92 341.209 570.072C338.751 570.993 337.485 572.014 337.159 572.41C334.358 572.713 327.536 574.52 322.667 579.324C317.798 584.128 312.207 584.948 310.02 584.757C304.568 587.905 296.157 587.364 294.084 587.731C292.011 588.097 288.141 590.747 288.32 591.058C288.5 591.37 288.495 595.317 288.183 595.497C287.934 595.641 287.32 595.441 287.045 595.324C285.128 597.759 278.853 602.959 275.956 605.255L260.625 614.314C256.915 614.795 252.617 619.629 250.932 621.986L248.907 623.155L248.637 622.688C249.565 615.302 236.457 627.852 235.679 628.301C235.056 628.661 232.771 628.181 231.706 627.896L232.15 627.225C232.371 626.889 231.401 624.129 231.982 624.416C232.447 624.646 233.601 624.104 234.12 623.804C245.898 613.267 245.689 616.502 246.138 617.28C246.588 618.059 246.75 619.418 247.618 619.124C248.313 618.889 252.78 614.276 254.927 611.999C256.041 611.77 258.461 610.996 259.223 609.726C260.175 608.138 273.757 602.165 274.02 601.183C274.284 600.2 281.467 595.015 283.066 593.469C284.346 592.232 284.738 591.328 284.774 591.03C284.945 591.208 285.4 591.54 285.846 591.449C286.403 591.335 285.834 588.55 285.804 586.699C285.779 585.219 289.74 583.804 291.723 583.282C295.653 584.334 307.306 581.135 308.264 580.997C309.223 580.859 311.949 581.983 314.393 579.742C316.837 577.5 325.938 572.039 326.782 571.343C327.627 570.648 333.51 569.327 335.649 568.715C337.788 568.103 336.206 568.601 338.183 566.629C340.16 564.657 342.797 565.626 344.6 564.793C346.042 564.126 347.437 562.393 347.955 561.61C354.785 562.649 356.073 561.283 360.398 560.861C364.724 560.439 365.688 550.957 365.778 551.113C365.868 551.268 367.851 550.746 368.695 550.051C369.54 549.356 370.684 545.582 370.906 545.246C371.127 544.91 371.217 545.066 372.613 542.807C373.729 541 375.467 540.675 376.195 540.739C377.907 541.065 382.012 541.532 384.739 540.788C388.148 539.858 388.645 536.042 389.13 534.724C389.615 533.406 394.534 530.774 394.845 530.594C397.812 527.387 401.689 526.02 403.257 525.738C408.088 524.609 417.831 520.645 422.098 518.803C421.978 516.797 432.295 514.162 435.183 511.249C437.493 508.919 438.262 507.949 438.358 507.756C443.66 506.147 448.129 502.737 449.417 501.37C450.705 500.004 451.1 493.134 452.837 492.546C454.227 492.075 457.514 487.216 458.984 484.846C459.139 479.359 462.668 480.435 462.889 480.1C463.111 479.764 464.765 480.47 464.717 479.667C464.669 478.865 465.687 477.031 467.113 476.623C468.539 476.215 469.941 475.406 470.252 475.226C471.69 472.32 479.838 468.447 481.707 467.367L484.666 465.659C485.788 465.011 487.426 466.003 488.105 466.579C488.043 464.457 491.718 464.563 493.563 464.881C494.608 462.95 497.737 461.918 499.171 461.644C500.649 461.206 504.057 459.819 505.869 457.777C508.133 455.224 512.369 454.647 513.729 454.484C515.089 454.322 520.301 452.558 522.392 451.143C524.483 449.728 523.141 448.843 524.189 448.86C525.238 448.877 537.543 441.773 539.298 440.137C540.702 438.828 543.49 437.924 544.708 437.636C551.84 436.175 556.223 431.68 557.523 429.615C558.812 430.697 560.353 430.679 560.962 430.535C563.059 430.57 563.927 424.88 564.298 423.005C564.669 421.13 565.562 421.237 566.053 421.368C566.446 421.474 567.152 420.873 567.455 420.559C568.977 416.359 578.766 415.689 583.428 415.489C588.089 415.289 589.358 409.574 589.826 409.304C590.293 409.034 594.373 408.547 595.373 407.762C596.174 407.134 600.731 403.492 602.91 401.75C603.669 401.865 605.932 401.085 608.913 397.039C611.893 392.993 614.352 392.791 615.209 393.196C616.052 390.052 618 388.678 618.869 388.384C620.067 386.862 625.489 387.26 625.957 386.99C629.156 383.898 641.402 383.885 641.737 384.107Z" fill="#70D8FF"/>
<path d="M229.369 623.848C229.328 624.495 229.951 624.135 230.196 624.201L224.744 627.349C223.716 628.565 221.199 630.849 219.359 630.251C217.518 629.653 216.886 631.125 216.801 631.935C216.211 631.777 209.861 634.904 206.76 636.487L204.243 632.128C204.752 631.211 214.464 627.887 214.505 627.241C214.539 626.723 214.903 626.25 215.08 626.078C215.809 626.142 217.552 626.187 218.693 625.861C220.119 625.453 221.497 624.242 222.006 623.325C222.515 622.409 228.392 619.638 229.129 619.835C229.866 620.033 229.291 621.195 229.477 622.956C229.663 624.717 229.411 623.201 229.369 623.848Z" fill="#70D8FF"/>
<path d="M26.4632 309.096L20.1908 313.34L22.4377 317.232L28.8899 313.299C29.1652 309.819 33.3228 306.588 34.8804 305.689C36.4381 304.789 39.2301 305.668 39.8772 305.71C40.5242 305.752 46.4433 302.334 48.6 300.674C50.7567 299.014 50.367 296.54 50.6785 296.36C50.9901 296.18 55.867 294.195 56.8914 293.812C57.711 293.504 59.3057 291.518 60.0006 290.563C59.382 287.765 61.4721 286.877 62.5944 286.782C68.8311 284.635 69.0227 282.448 69.5855 278.387C70.1482 274.326 71.664 274.073 71.8198 273.983C74.8538 274.058 78.8355 273.185 80.4471 272.739C84.7666 270.868 81.6207 265.419 85.2451 262.703C86.3376 261.885 89.461 262.691 91.0028 263.323C90.5294 262.144 92.3562 256.315 95.1002 256.391C97.2954 256.452 101.427 256.198 103.218 256.063C102.559 253.122 104.152 250.127 105.398 249.407C106.645 248.688 110.976 249.716 111.516 250.65C112.055 251.584 115.674 252.816 115.404 252.349C115.188 251.975 116.512 250.671 117.201 250.066C117.111 249.91 117.538 249.498 119.963 249.094C122.012 248.326 124.216 242.072 125.462 241.352C126.459 240.777 127.795 240.836 128.338 240.937C128.376 237.262 129.979 236.945 130.776 237.246C131.194 237.49 132.746 237.853 135.617 237.357C139.206 236.739 136.492 233.116 137.63 233.289C138.768 233.462 143.34 233.107 146.683 232.422C150.026 231.737 150.882 228.544 154.351 225.919C157.82 223.294 163.979 223.889 167.232 223.049C170.485 222.208 174.834 216.791 177.991 214.346C181.148 211.9 183.425 212.247 183.557 211.755C183.662 211.362 184.571 208.956 185.012 207.801C180.21 207.253 169.408 215.427 164.607 219.582C160.663 219.369 152.955 222.781 149.594 224.514C147.011 229.825 139.283 230.397 135.742 230.02C136.169 233.925 132.258 234.177 130.249 233.815C126.285 233.28 126.333 236.145 126.852 237.644C124.475 236.692 123.425 237.823 123.197 238.508C119.43 244.213 118.19 246.382 116.895 246.298C115.601 246.215 114.912 246.821 114.445 247.09C114.071 247.306 113.67 248.506 113.517 249.079C113.287 249.281 112.622 249.472 111.797 248.619C110.973 247.767 107.475 246.409 105.83 245.837C102.115 245.159 101.402 250.4 101.511 253.105L97.8079 253.167C93.5421 252.973 91.8247 253.715 91.4992 254.111C90.0566 254.778 89.2649 258.514 89.0494 260.3C85.4964 258.822 80.5896 258.956 80.9496 264.976C81.3097 270.995 72.3826 269.922 71.7595 270.282C68.6536 270.082 68.077 271.578 68.1769 272.35C66.1407 280.334 63.7423 282.176 62.7977 282.098C56.7203 283.947 57.0225 286.125 57.9333 286.983L54.3328 290.099C53.3694 290.157 49.9973 291.703 48.4316 292.468C47.8282 297.467 40.7556 300.637 37.2947 301.597C30.7042 300.254 27.3277 306.037 26.4632 309.096Z" fill="#70D8FF"/>
<path d="M184.654 223.368C184.319 223.147 184.84 219.733 184.75 219.577C190.549 219.55 196.153 217.145 198.23 215.946C205.136 216.109 207.857 212.117 208.354 210.1C214.777 209.713 212.907 205.396 220.965 201.366C226.261 196.15 231.954 194.26 234.139 193.968C234.846 190.012 238.907 188.076 240.849 187.603C253.891 186.882 256.855 183.551 256.707 181.976C260.721 181.734 260.469 174.822 262.134 173.03C263.8 171.239 266.352 173.501 266.508 173.411C266.664 173.321 268.239 171.374 270.995 168.953C273.2 167.015 279.618 164.943 282.552 164.148C285.269 161.085 295.418 156.097 300.153 153.986C303.017 150.672 300.345 151.8 310.236 148.788C320.127 145.776 316.73 144.208 320.475 143.499C323.47 142.932 328.073 139.873 330 138.415C330.811 138.5 332.7 138.558 333.769 138.107C334.837 137.656 335.488 136.769 335.68 136.381C336.039 137.004 337.958 137.21 338.873 137.236C347.626 134.051 353.042 127.603 353.353 127.423C353.665 127.243 353.083 126.956 356.049 126.697C359.015 126.437 358.889 122.982 359.044 122.892C365.066 122.529 364.604 118.851 365.089 117.533C365.574 116.215 369.552 112.673 371.038 110.57C372.523 108.467 373.595 103.489 374.949 101.877C376.032 100.587 383.456 96.827 387.033 95.108C387.446 92.5861 397.241 87.9687 399.224 87.4465C401.207 86.9243 402.178 84.2883 402.915 84.4856C403.652 84.6829 410.17 80.5045 418.593 78.5472C425.332 76.9814 432.409 71.5397 435.104 69.0146C436.589 61.5147 443.821 62.529 446.343 62.9409C448.361 63.2704 449.976 62.1582 450.531 61.561C451.204 60.6881 452.706 58.8524 453.329 58.4927C454.108 58.0431 455.539 53.6878 456.384 52.9925C457.06 52.4363 457.987 52.4126 458.367 52.4703C458.774 48.4989 459.93 47.6238 462.236 44.424C464.082 41.8642 472.367 41.8269 476.28 42.1283C478.185 38.9527 482.109 38.5552 485.182 37.4035C487.641 36.4822 488.907 35.4608 489.232 35.0653C492.034 34.7623 498.855 32.9553 503.724 28.1513C508.594 23.3473 514.185 22.5272 516.371 22.7177C521.823 19.5702 530.235 20.1106 532.308 19.7441C534.381 19.3776 538.251 16.728 538.071 16.4167C537.891 16.1053 537.897 12.1581 538.209 11.9782C538.458 11.8343 539.071 12.0337 539.347 12.1513C541.264 9.71604 547.538 4.51594 550.436 2.22031L565.767 -6.83848C569.476 -7.3197 573.774 -12.1537 575.46 -14.5106L577.485 -15.6797L577.754 -15.2127C576.826 -7.82685 589.934 -20.3765 590.713 -20.8261C591.336 -21.1858 593.621 -20.7059 594.685 -20.421L594.242 -19.7499C594.02 -19.4143 594.991 -16.6536 594.41 -16.9408C593.945 -17.1705 592.79 -16.6284 592.271 -16.3287C580.493 -5.79235 580.703 -9.02689 580.253 -9.80531C579.804 -10.5837 579.642 -11.9433 578.773 -11.6493C578.078 -11.4142 573.611 -6.80084 571.465 -4.52358C570.35 -4.29537 567.931 -3.52136 567.169 -2.25114C566.217 -0.663363 552.635 5.30982 552.371 6.29226C552.108 7.2747 544.925 12.4597 543.325 14.0059C542.046 15.2429 541.654 16.1472 541.618 16.4447C541.446 16.2671 540.991 15.9347 540.546 16.026C539.988 16.1401 540.558 18.925 540.588 20.7758C540.612 22.2564 536.652 23.671 534.669 24.1932C530.739 23.1411 519.086 26.34 518.127 26.4783C517.169 26.6166 514.443 25.492 511.998 27.7335C509.554 29.975 500.454 35.4366 499.609 36.1318C498.765 36.8271 492.881 38.148 490.742 38.7601C488.604 39.3723 490.185 38.8743 488.208 40.846C486.231 42.8176 483.595 41.8488 481.792 42.6823C480.349 43.3491 478.954 45.0817 478.437 45.8647C471.607 44.8262 470.319 46.1926 465.993 46.6142C461.668 47.0358 460.704 56.5181 460.614 56.3624C460.524 56.2067 458.541 56.7289 457.696 57.4242C456.852 58.1194 455.708 61.8936 455.486 62.2291C455.264 62.5646 455.174 62.409 453.779 64.6678C452.662 66.4749 450.925 66.7997 450.196 66.7362C448.485 66.4097 444.38 65.9428 441.653 66.687C438.244 67.6173 437.747 71.433 437.262 72.751C436.776 74.069 431.858 76.7011 431.546 76.881C428.58 80.0883 424.703 81.4549 423.135 81.7373C418.304 82.8659 408.561 86.8305 404.293 88.6716C404.413 90.6781 394.096 93.3132 391.209 96.2258C388.899 98.5559 388.13 99.5258 388.034 99.7195C382.732 101.328 378.263 104.738 376.975 106.105C375.687 107.471 375.292 114.341 373.554 114.929C372.165 115.4 368.878 120.259 367.408 122.629C367.253 128.116 363.724 127.04 363.502 127.375C363.281 127.711 361.627 127.005 361.675 127.808C361.723 128.61 360.705 130.444 359.279 130.852C357.853 131.26 356.451 132.069 356.139 132.249C354.702 135.155 346.554 139.028 344.685 140.108L341.725 141.816C340.604 142.464 338.965 141.472 338.286 140.896C338.349 143.019 334.674 142.912 332.828 142.594C331.784 144.526 328.655 145.557 327.221 145.831C325.743 146.269 322.335 147.656 320.523 149.698C318.259 152.251 314.023 152.829 312.663 152.991C311.303 153.153 306.091 154.917 304 156.332C301.909 157.747 303.251 158.632 302.203 158.615C301.154 158.598 288.849 165.702 287.093 167.338C285.689 168.647 282.902 169.551 281.684 169.839C274.552 171.3 270.169 175.795 268.869 177.86C267.58 176.778 266.039 176.796 265.43 176.94C263.333 176.905 262.465 182.596 262.093 184.471C261.722 186.346 260.829 186.238 260.338 186.107C259.945 186.002 259.24 186.602 258.936 186.916C257.415 191.116 247.625 191.786 242.964 191.986C238.303 192.186 237.033 197.901 236.566 198.171C236.099 198.441 232.019 198.928 231.018 199.713C230.218 200.342 225.66 203.983 223.482 205.725C222.723 205.61 220.46 206.39 217.479 210.436C214.498 214.482 212.039 214.684 211.183 214.279C210.34 217.424 208.391 218.797 207.522 219.091C206.324 220.613 200.902 220.215 200.435 220.485C197.236 223.577 184.99 223.59 184.654 223.368Z" fill="#70D8FF"/>
<path d="M597.022 -16.3732C597.064 -17.0201 596.441 -16.6604 596.195 -16.7261L601.647 -19.8737C602.675 -21.0902 605.192 -23.3736 607.033 -22.7757C608.874 -22.1777 609.505 -23.6495 609.591 -24.4602C610.181 -24.3023 616.531 -27.4289 619.632 -29.0118L622.149 -24.6527C621.64 -23.736 611.928 -20.4124 611.886 -19.7655C611.853 -19.2479 611.489 -18.775 611.311 -18.6032C610.582 -18.6667 608.839 -18.712 607.698 -18.3856C606.273 -17.9775 604.895 -16.7668 604.386 -15.8501C603.876 -14.9334 597.999 -12.163 597.262 -12.3602C596.525 -12.5575 597.1 -13.7198 596.914 -15.4807C596.729 -17.2415 596.98 -15.7263 597.022 -16.3732Z" fill="#70D8FF"/>
<path d="M415 239C349 265.4 352.166 374.666 362 426H575C591.5 290.166 616.8 38.6997 586 119.5C547.5 220.5 497.5 206 415 239Z" fill="#35A6DA"/>
<path d="M408.875 215.429C338.291 223.847 313.069 330.211 309.282 382.34L515.024 437.468C566.118 310.534 655.64 74.1838 604.977 144.259C541.648 231.853 497.105 204.906 408.875 215.429Z" stroke="white" stroke-width="3"/>
<path d="M411.7 230.872C355.085 237.624 375 336.5 379.5 361.5L496.842 408.968C537.824 307.155 609.629 117.58 568.992 173.787C518.197 244.045 482.469 222.432 411.7 230.872Z" stroke="white" stroke-opacity="0.5" stroke-width="3"/>
</g>
<defs>
<clipPath id="clip0_24_3352">
<rect width="554" height="319" fill="white"/>
</clipPath>
</defs>
</svg>
