<svg width="660" height="362" viewBox="0 0 660 362" fill="none" xmlns="http://www.w3.org/2000/svg">
<g clip-path="url(#clip0_24_3409)">
<path fill-rule="evenodd" clip-rule="evenodd" d="M1496.44 355.46L1315.38 690.69L1233.43 660.92L1221.82 661.896L1183.05 635.839L1146.15 608.667L1136.31 596.107L1092.41 589.016L1065.58 572.397L983.709 545.65L958.404 512.804L933.598 506.651L910.686 488.31L868.927 471.722L830.983 451.229L794.138 425.149L781.618 404.535L774.544 394.747L759.347 381.851L723.587 361.259L681.036 348.505L601.396 306.77L559.376 290.468L546.753 270.438L520.145 262.886L446.118 216.085L411.064 199.709L392.296 198.949L389.094 220.66L359.246 204.113L338.885 198.017L313.429 183.203L291.111 177.968L275.273 169.414L263.145 160.306L248.687 145.252L242.748 142.044L224.15 146.491L217.281 135.535L196.514 129.007L191.572 120.797L180.676 120.453L172.798 104.264L158.364 100.411L148.454 94.0995L141.665 80.6298L127.127 68.09L87.6199 38.6539L65.4073 30.0665L43.9147 14.6225L229.428 -328.855L229.427 -328.855L410.486 -664.084L492.433 -634.315L504.042 -635.291L542.817 -609.234L579.712 -582.061L589.55 -569.502L633.454 -562.411L660.279 -545.792L742.154 -519.045L767.46 -486.198L792.266 -480.046L815.178 -461.705L856.937 -445.117L894.881 -424.623L931.726 -398.543L944.246 -377.929L951.32 -368.142L966.517 -355.246L1002.28 -334.653L1044.83 -321.9L1124.47 -280.165L1166.49 -263.863L1179.11 -243.833L1205.72 -236.281L1279.75 -189.48L1314.8 -173.104L1333.57 -172.343L1336.77 -194.055L1366.62 -177.508L1386.98 -171.412L1412.43 -156.598L1434.75 -151.363L1450.59 -142.809L1462.72 -133.701L1477.18 -118.647L1483.12 -115.439L1501.71 -119.885L1508.58 -108.93L1529.35 -102.402L1534.29 -94.1917L1545.19 -93.8477L1553.07 -77.659L1567.5 -73.8055L1577.41 -67.4941L1584.2 -54.0245L1598.74 -41.4847L1638.24 -12.0487L1660.46 -3.46121L1681.95 11.9829L1496.44 355.46Z" fill="#F68B1A"/>
<path d="M56.5704 24.3502L43.2399 15.8717L47.6947 7.62371L61.3816 15.4423C62.1616 22.6828 71.0223 29.1733 74.3235 30.9563C77.6247 32.7393 83.3946 30.7412 84.7414 30.6162C86.0881 30.4912 98.6328 37.2666 103.228 40.601C107.824 43.9354 107.158 49.1162 107.818 49.4728C108.478 49.8294 118.765 53.6796 120.924 54.4194C122.651 55.0113 126.094 59.0586 127.599 61.0083C126.475 66.8794 130.886 68.6082 133.232 68.7387C146.364 72.8478 146.892 77.3954 148.306 85.8307C149.72 94.266 152.896 94.7026 153.226 94.8809C159.548 94.5448 167.902 96.1305 171.289 96.9653C180.407 100.611 174.17 112.159 181.888 117.607C184.215 119.249 190.68 117.383 193.857 115.974C192.94 118.462 197.094 130.508 202.811 130.186C207.385 129.929 216.015 130.214 219.759 130.389C218.558 136.56 222.058 142.712 224.699 144.139C227.34 145.565 236.312 143.165 237.381 141.186C238.45 139.206 245.923 136.423 245.388 137.413C244.961 138.205 247.799 140.846 249.271 142.067C249.093 142.397 250.007 143.231 255.088 143.93C259.405 145.41 264.372 158.321 267.013 159.747C269.126 160.888 271.907 160.686 273.034 160.442C273.331 168.103 276.693 168.669 278.336 167.994C279.192 167.462 282.408 166.613 288.424 167.476C295.944 168.554 290.498 176.268 292.862 175.839C295.225 175.411 304.778 175.882 311.79 177.112C318.801 178.342 320.776 184.949 328.164 190.218C335.553 195.487 348.36 193.881 355.193 195.44C362.027 197 371.416 208.038 378.144 212.95C384.872 217.863 389.599 217.006 389.903 218.023C390.146 218.836 392.184 223.801 393.172 226.181C383.19 227.609 360.182 211.205 349.926 202.824C341.713 203.503 325.439 196.844 318.328 193.429C312.628 182.509 296.48 181.772 289.119 182.768C289.778 174.6 281.607 174.307 277.439 175.181C269.206 176.531 269.136 170.554 270.13 167.398C265.229 169.524 262.974 167.226 262.458 165.811C254.264 154.14 251.55 149.691 248.856 149.941C246.163 150.191 244.69 148.969 243.7 148.434C242.908 148.006 242.001 145.528 241.646 144.342C241.155 143.935 239.757 143.577 238.088 145.403C236.419 147.23 229.207 150.267 225.809 151.557C218.103 153.192 216.308 142.306 216.373 136.658L208.649 136.748C199.765 137.406 196.14 135.959 195.438 135.154C192.39 133.849 190.518 126.104 189.963 122.394C182.642 125.686 172.402 125.696 172.797 113.123C173.191 100.55 154.64 103.316 153.319 102.603C146.855 103.203 145.564 100.119 145.727 98.5021C141.008 81.9741 135.898 78.2765 133.933 78.4938C121.151 74.9998 121.652 70.4402 123.5 68.5972L115.808 62.3116C113.796 62.2476 106.673 59.2244 103.363 57.7208C101.809 47.3345 86.8734 41.1432 79.6 39.3458C65.9371 42.5361 58.554 30.678 56.5704 24.3502Z" fill="#F68B1A"/>
<path d="M391.504 193.742C390.817 194.224 392.105 201.313 391.927 201.643C404.022 201.356 415.849 206.039 420.25 208.417C434.642 207.666 440.552 215.83 441.708 220.006C455.123 220.433 451.48 229.546 468.521 237.471C479.873 248.035 491.857 251.638 496.43 252.119C498.138 260.325 506.72 264.121 510.797 264.993C538.034 265.724 544.413 272.494 544.198 275.788C552.582 276.055 552.466 290.482 556.044 294.119C559.623 297.757 564.812 292.888 565.142 293.066C565.472 293.244 568.872 297.212 574.762 302.098C579.474 306.006 592.98 309.948 599.144 311.431C604.992 317.658 626.45 327.457 636.448 331.579C642.615 338.319 636.977 336.126 657.78 341.822C678.584 347.517 671.593 350.987 679.443 352.243C685.723 353.248 695.502 359.354 699.606 362.281C701.292 362.055 705.227 361.822 707.483 362.7C709.738 363.577 711.147 365.389 711.57 366.186C712.283 364.866 716.272 364.321 718.178 364.214C736.618 370.338 748.292 383.462 748.952 383.819C749.613 384.176 748.418 384.809 754.617 385.174C760.816 385.538 760.758 392.752 761.088 392.931C773.665 393.33 772.92 401.026 774.01 403.745C775.099 406.465 783.603 413.615 786.826 417.913C790.048 422.211 792.578 432.527 795.497 435.808C797.831 438.433 813.535 445.835 821.094 449.207C822.105 454.442 842.803 463.49 846.969 464.461C851.135 465.433 853.315 470.872 854.84 470.417C856.365 469.962 870.204 478.289 887.884 481.871C902.028 484.737 917.106 495.665 922.877 500.771C926.418 516.322 941.437 513.779 946.672 512.771C950.86 511.964 954.293 514.187 955.486 515.4C956.941 517.18 960.181 520.919 961.501 521.632C963.152 522.524 966.395 531.521 968.197 532.92C969.639 534.04 971.575 534.035 972.363 533.892C973.447 542.149 975.91 543.905 980.908 550.441C984.907 555.669 1002.19 555.256 1010.33 554.396C1014.49 560.905 1022.69 561.502 1029.17 563.721C1034.35 565.497 1037.05 567.552 1037.75 568.357C1043.61 568.823 1057.94 572.187 1068.38 581.916C1078.82 591.645 1090.53 593.024 1095.07 592.497C1106.63 598.738 1124.14 597.113 1128.48 597.754C1132.83 598.396 1141.05 603.692 1140.7 604.351C1140.34 605.011 1140.59 613.242 1141.25 613.598C1141.77 613.884 1143.04 613.432 1143.61 613.17C1147.75 618.135 1161.14 628.606 1167.32 633.221L1199.82 651.203C1207.59 651.987 1216.84 661.812 1220.49 666.627L1224.78 668.945L1225.32 667.955C1222.94 652.609 1251.02 678.001 1252.67 678.893C1253.99 679.606 1258.72 678.47 1260.93 677.813L1259.96 676.44C1259.48 675.753 1261.34 669.939 1260.15 670.573C1259.19 671.079 1256.75 670.017 1255.65 669.423C1230.47 648.15 1231.1 654.882 1230.21 656.532C1229.31 658.182 1229.06 661.026 1227.23 660.465C1225.77 660.015 1216.18 650.66 1211.57 646.039C1209.23 645.629 1204.14 644.158 1202.48 641.555C1200.4 638.3 1171.72 626.649 1171.11 624.616C1170.51 622.583 1155.22 612.197 1151.79 609.067C1149.05 606.564 1148.18 604.701 1148.09 604.083C1147.74 604.464 1146.81 605.184 1145.88 605.02C1144.71 604.815 1145.73 598.974 1145.69 595.113C1145.65 592.024 1137.31 589.309 1133.14 588.337C1125.01 590.764 1100.52 584.783 1098.51 584.552C1096.51 584.32 1090.89 586.827 1085.66 582.297C1080.43 577.768 1061.13 566.919 1059.33 565.519C1057.53 564.119 1045.18 561.713 1040.68 560.563C1036.19 559.413 1039.52 560.358 1035.28 556.364C1031.04 552.37 1025.6 554.546 1021.79 552.915C1018.74 551.61 1015.73 548.079 1014.6 546.477C1000.42 549.047 997.657 546.274 988.612 545.651C979.567 545.028 976.997 525.313 976.818 525.643C976.64 525.973 972.474 525.002 970.672 523.602C968.869 522.202 966.26 514.4 965.778 513.713C965.296 513.027 965.118 513.357 962.074 508.729C959.639 505.027 955.997 504.453 954.481 504.628C950.932 505.411 942.4 506.627 936.669 505.237C929.506 503.499 928.244 495.572 927.154 492.852C926.064 490.133 915.652 484.935 914.992 484.579C908.616 478.067 900.451 475.447 897.165 474.951C887.025 472.883 866.474 465.193 857.466 461.607C857.598 457.416 835.929 452.532 829.736 446.629C824.781 441.908 823.12 439.931 822.908 439.532C811.757 436.493 802.236 429.646 799.47 426.873C796.703 424.1 795.473 409.797 791.816 408.674C788.89 407.776 781.748 397.839 778.543 392.982C777.895 381.551 770.6 384.004 770.118 383.317C769.636 382.63 766.23 384.2 766.282 382.524C766.335 380.847 764.103 377.085 761.106 376.318C758.108 375.552 755.137 373.947 754.477 373.591C751.307 367.617 734.088 360.022 730.126 357.882L723.854 354.494C721.477 353.211 718.119 355.375 716.738 356.617C716.742 352.187 709.085 352.626 705.256 353.4C702.964 349.434 696.378 347.468 693.372 346.981C690.264 346.155 683.075 343.465 679.177 339.314C674.304 334.125 665.437 333.172 662.592 332.914C659.746 332.655 648.773 329.286 644.33 326.46C639.886 323.634 642.632 321.707 640.447 321.806C638.262 321.904 612.182 307.818 608.425 304.511C605.42 301.864 599.554 300.145 596.997 299.617C582.039 296.993 572.634 287.879 569.801 283.649C567.177 285.982 563.963 286.037 562.685 285.773C558.314 285.969 556.167 274.155 555.282 270.267C554.396 266.379 552.541 266.656 551.525 266.959C550.711 267.202 549.205 265.99 548.554 265.354C545.133 256.687 524.68 255.87 514.948 255.728C505.217 255.587 502.231 243.745 501.241 243.21C500.251 242.675 491.714 241.901 489.582 240.323C487.875 239.06 478.157 231.737 473.511 228.233C471.935 228.519 467.17 227.025 460.715 218.765C454.26 210.505 449.121 210.229 447.358 211.124C445.414 204.618 441.27 201.869 439.441 201.308C436.853 198.205 425.57 199.356 424.58 198.821C417.726 192.562 392.19 193.261 391.504 193.742Z" fill="#F68B1A"/>
<path d="M1265.56 669.234C1265.69 670.581 1264.37 669.868 1263.86 670.019L1275.41 676.26C1277.63 678.735 1283.01 683.348 1286.81 681.992C1290.62 680.636 1292.02 683.668 1292.25 685.353C1293.47 684.989 1306.89 691.132 1313.45 694.25L1318.44 685.011C1317.33 683.13 1296.88 676.774 1296.76 675.428C1296.66 674.351 1295.87 673.386 1295.49 673.038C1293.97 673.214 1290.34 673.412 1287.94 672.798C1284.94 672.032 1282 669.589 1280.88 667.708C1279.77 665.826 1267.35 660.397 1265.82 660.852C1264.3 661.307 1265.57 663.697 1265.28 667.38C1265 671.062 1265.44 667.888 1265.56 669.234Z" fill="#F68B1A"/>
<path d="M1670.02 0.904226L1683.35 9.38268L1678.9 17.6307L1665.21 9.81213C1664.43 2.57163 1655.57 -3.91888 1652.27 -5.70188C1648.97 -7.48488 1643.2 -5.48678 1641.85 -5.36178C1640.51 -5.23678 1627.96 -12.0122 1623.37 -15.3466C1618.77 -18.681 1619.44 -23.8618 1618.78 -24.2184C1618.12 -24.575 1607.83 -28.4252 1605.67 -29.1651C1603.94 -29.7569 1600.5 -33.8042 1598.99 -35.7539C1600.12 -41.625 1595.71 -43.3538 1593.36 -43.4843C1580.23 -47.5934 1579.7 -52.141 1578.29 -60.5763C1576.87 -69.0116 1573.7 -69.4482 1573.37 -69.6265C1567.05 -69.2904 1558.69 -70.8761 1555.3 -71.7109C1546.19 -75.3568 1552.42 -86.9051 1544.71 -92.3524C1542.38 -93.9944 1535.91 -92.1285 1532.74 -90.7192C1533.65 -93.2071 1529.5 -105.253 1523.78 -104.932C1519.21 -104.674 1510.58 -104.96 1506.84 -105.135C1508.04 -111.306 1504.54 -117.458 1501.89 -118.884C1499.25 -120.311 1490.28 -117.911 1489.21 -115.931C1488.14 -113.952 1480.67 -111.169 1481.21 -112.158C1481.63 -112.95 1478.8 -115.591 1477.32 -116.813C1477.5 -117.143 1476.59 -117.977 1471.51 -118.676C1467.19 -120.155 1462.22 -133.066 1459.58 -134.493C1457.47 -135.634 1454.69 -135.432 1453.56 -135.188C1453.26 -142.849 1449.9 -143.415 1448.26 -142.74C1447.4 -142.208 1444.19 -141.359 1438.17 -142.221C1430.65 -143.299 1436.1 -151.013 1433.73 -150.585C1431.37 -150.157 1421.82 -150.628 1414.8 -151.858C1407.79 -153.087 1405.82 -159.695 1398.43 -164.964C1391.04 -170.233 1378.23 -168.626 1371.4 -170.186C1364.57 -171.746 1355.18 -182.784 1348.45 -187.696C1341.72 -192.609 1336.99 -191.752 1336.69 -192.768C1336.45 -193.582 1334.41 -198.546 1333.42 -200.927C1343.4 -202.355 1366.41 -185.951 1376.67 -177.57C1384.88 -178.248 1401.16 -171.589 1408.27 -168.175C1413.97 -157.254 1430.11 -156.517 1437.47 -157.514C1436.82 -149.346 1444.99 -149.053 1449.15 -149.927C1457.39 -151.276 1457.46 -145.3 1456.46 -142.143C1461.36 -144.27 1463.62 -141.972 1464.14 -140.557C1472.33 -128.886 1475.04 -124.436 1477.74 -124.686C1480.43 -124.936 1481.9 -123.715 1482.89 -123.18C1483.69 -122.752 1484.59 -120.273 1484.95 -119.087C1485.44 -118.68 1486.84 -118.322 1488.51 -120.149C1490.17 -121.975 1497.39 -125.013 1500.78 -126.303C1508.49 -127.938 1510.29 -117.051 1510.22 -111.404L1517.95 -111.494C1526.83 -112.151 1530.45 -110.705 1531.16 -109.899C1534.2 -108.594 1536.08 -100.849 1536.63 -97.1399C1543.95 -100.431 1554.19 -100.441 1553.8 -87.8683C1553.4 -75.2953 1571.95 -78.0618 1573.27 -77.3486C1579.74 -77.9486 1581.03 -74.8646 1580.87 -73.2477C1585.59 -56.7197 1590.7 -53.0221 1592.66 -53.2394C1605.44 -49.7454 1604.94 -45.1858 1603.09 -43.3428L1610.79 -37.0572C1612.8 -36.9932 1619.92 -33.9701 1623.23 -32.4664C1624.78 -22.0801 1639.72 -15.8888 1646.99 -14.0914C1660.66 -17.2817 1668.04 -5.42362 1670.02 0.904226Z" fill="#F68B1A"/>
<path d="M1335.09 -168.488C1335.78 -168.97 1334.49 -176.058 1334.67 -176.388C1322.57 -176.101 1310.75 -180.785 1306.34 -183.162C1291.95 -182.411 1286.04 -190.576 1284.89 -194.752C1271.47 -195.178 1275.11 -204.292 1258.07 -212.217C1246.72 -222.78 1234.74 -226.383 1230.16 -226.864C1228.46 -235.07 1219.87 -238.866 1215.8 -239.739C1188.56 -240.47 1182.18 -247.24 1182.4 -250.533C1174.01 -250.8 1174.13 -265.227 1170.55 -268.865C1166.97 -272.503 1161.78 -267.633 1161.45 -267.812C1161.12 -267.99 1157.72 -271.958 1151.83 -276.843C1147.12 -280.752 1133.61 -284.694 1127.45 -286.177C1121.6 -292.403 1100.14 -302.203 1090.15 -306.324C1083.98 -313.065 1089.62 -310.872 1068.81 -316.568C1048.01 -322.263 1055 -325.733 1047.15 -326.989C1040.87 -327.994 1031.09 -334.1 1026.99 -337.027C1025.3 -336.801 1021.37 -336.568 1019.11 -337.445C1016.86 -338.322 1015.45 -340.135 1015.02 -340.931C1014.31 -339.611 1010.32 -339.067 1008.42 -338.96C989.976 -345.084 978.302 -358.208 977.641 -358.565C976.981 -358.921 978.176 -359.554 971.977 -359.919C965.777 -360.284 965.836 -367.498 965.506 -367.676C952.929 -368.076 953.674 -375.771 952.584 -378.491C951.495 -381.211 942.99 -388.361 939.768 -392.659C936.546 -396.956 934.016 -407.273 931.097 -410.554C928.762 -413.179 913.059 -420.58 905.5 -423.953C904.489 -429.187 883.79 -438.235 879.624 -439.207C875.458 -440.178 873.279 -445.617 871.754 -445.163C870.229 -444.708 856.39 -453.034 838.71 -456.617C824.565 -459.483 809.488 -470.411 803.717 -475.517C800.176 -491.068 785.157 -488.524 779.922 -487.516C775.734 -486.71 772.301 -488.933 771.108 -490.146C769.653 -491.926 766.413 -495.665 765.093 -496.378C763.442 -497.269 760.199 -506.266 758.397 -507.666C756.955 -508.786 755.018 -508.78 754.231 -508.637C753.147 -516.894 750.684 -518.651 745.685 -525.186C741.687 -530.415 724.407 -530.002 716.267 -529.142C712.106 -535.651 703.9 -536.247 697.423 -538.467C692.242 -540.242 689.542 -542.297 688.84 -543.103C682.98 -543.569 668.65 -546.933 658.212 -556.662C647.774 -566.391 636.067 -567.77 631.519 -567.243C619.965 -573.483 602.456 -571.858 598.112 -572.5C593.768 -573.141 585.541 -578.437 585.898 -579.097C586.254 -579.757 586.009 -587.987 585.348 -588.344C584.82 -588.629 583.553 -588.177 582.985 -587.916C578.844 -592.88 565.452 -603.352 559.275 -607.967L526.771 -625.949C519.007 -626.733 509.758 -636.558 506.105 -641.373L501.813 -643.691L501.278 -642.701C503.651 -627.355 475.576 -652.747 473.925 -653.639C472.604 -654.352 467.869 -653.216 465.666 -652.559L466.63 -651.186C467.112 -650.499 465.251 -644.685 466.446 -645.318C467.402 -645.825 469.842 -644.763 470.942 -644.168C496.125 -622.895 495.497 -629.628 496.388 -631.277C497.279 -632.927 497.536 -635.772 499.365 -635.21C500.828 -634.761 510.416 -625.406 515.027 -620.784C517.364 -620.375 522.454 -618.904 524.118 -616.3C526.198 -613.046 554.872 -601.395 555.48 -599.362C556.087 -597.329 571.372 -586.942 574.799 -583.813C577.541 -581.309 578.411 -579.447 578.503 -578.829C578.851 -579.209 579.78 -579.929 580.715 -579.765C581.884 -579.56 580.861 -573.719 580.908 -569.858C580.945 -566.77 589.287 -564.055 593.452 -563.083C601.586 -565.509 626.073 -559.529 628.08 -559.297C630.087 -559.066 635.705 -561.572 640.935 -557.043C646.164 -552.514 665.463 -541.664 667.265 -540.264C669.068 -538.865 681.414 -536.459 685.91 -535.309C690.406 -534.159 687.079 -535.104 691.318 -531.11C695.557 -527.115 700.996 -529.292 704.806 -527.66C707.853 -526.355 710.865 -522.825 711.99 -521.223C726.17 -523.793 728.937 -521.02 737.982 -520.397C747.026 -519.774 749.597 -500.059 749.775 -500.389C749.954 -500.719 754.12 -499.747 755.922 -498.347C757.725 -496.948 760.334 -489.146 760.816 -488.459C761.298 -487.773 761.476 -488.102 764.52 -483.475C766.955 -479.773 770.597 -479.198 772.113 -479.374C775.662 -480.156 784.194 -481.373 789.925 -479.982C797.088 -478.245 798.35 -470.317 799.44 -467.598C800.529 -464.878 810.942 -459.681 811.602 -459.324C817.977 -452.812 826.143 -450.192 829.428 -449.696C839.569 -447.629 860.12 -439.939 869.128 -436.352C868.996 -432.161 890.664 -427.277 896.858 -421.375C901.813 -416.653 903.474 -414.676 903.685 -414.278C914.836 -411.239 924.357 -404.391 927.124 -401.619C929.891 -398.846 931.12 -384.543 934.778 -383.42C937.704 -382.521 944.845 -372.584 948.05 -367.728C948.699 -356.297 955.994 -358.749 956.476 -358.063C956.958 -357.376 960.364 -358.946 960.311 -357.269C960.259 -355.593 962.491 -351.83 965.488 -351.064C968.486 -350.297 971.457 -348.693 972.117 -348.336C975.287 -342.362 992.506 -334.767 996.467 -332.628L1002.74 -329.24C1005.12 -327.956 1008.47 -330.12 1009.86 -331.363C1009.85 -326.933 1017.51 -327.372 1021.34 -328.145C1023.63 -324.179 1030.22 -322.214 1033.22 -321.727C1036.33 -320.901 1043.52 -318.211 1047.42 -314.06C1052.29 -308.871 1061.16 -307.917 1064 -307.659C1066.85 -307.401 1077.82 -304.032 1082.26 -301.206C1086.71 -298.379 1083.96 -296.453 1086.15 -296.551C1088.33 -296.65 1114.41 -282.564 1118.17 -279.256C1121.17 -276.61 1127.04 -274.891 1129.6 -274.362C1144.55 -271.739 1153.96 -262.624 1156.79 -258.395C1159.42 -260.728 1162.63 -260.783 1163.91 -260.518C1168.28 -260.715 1170.43 -248.9 1171.31 -245.012C1172.2 -241.125 1174.05 -241.401 1175.07 -241.705C1175.88 -241.947 1177.39 -240.736 1178.04 -240.1C1181.46 -231.433 1201.91 -230.615 1211.65 -230.474C1221.38 -230.332 1224.36 -218.491 1225.35 -217.956C1226.34 -217.421 1234.88 -216.646 1237.01 -215.068C1238.72 -213.806 1248.44 -206.482 1253.08 -202.979C1254.66 -203.264 1259.42 -201.77 1265.88 -193.51C1272.33 -185.25 1277.47 -184.975 1279.24 -185.869C1281.18 -179.363 1285.32 -176.615 1287.15 -176.053C1289.74 -172.951 1301.02 -174.102 1302.01 -173.567C1308.87 -167.308 1334.4 -168.006 1335.09 -168.488Z" fill="#F68B1A"/>
<path d="M461.033 -643.98C460.907 -645.326 462.228 -644.613 462.736 -644.765L451.182 -651.005C448.965 -653.481 443.582 -658.093 439.779 -656.738C435.977 -655.382 434.572 -658.413 434.345 -660.099C433.125 -659.735 419.699 -665.878 413.139 -668.995L408.149 -659.757C409.265 -657.875 429.712 -651.52 429.838 -650.174C429.938 -649.096 430.725 -648.132 431.106 -647.784C432.622 -647.959 436.254 -648.157 438.652 -647.544C441.649 -646.778 444.594 -644.335 445.71 -642.453C446.826 -640.572 459.245 -635.143 460.77 -635.598C462.295 -636.053 461.027 -638.442 461.31 -642.125C461.594 -645.808 461.158 -642.633 461.033 -643.98Z" fill="#F68B1A"/>
<path d="M620.567 242.831C670.231 293.688 769.954 248.917 813.608 220.174L732.034 23.4129C600.238 60.1916 358.254 133.126 444.69 130.633C552.734 127.518 558.488 179.259 620.567 242.831Z" fill="#E87C33"/>
<path d="M601.139 257.516C635.948 319.494 743.861 302.058 793.466 285.593L765.598 74.4243C628.773 75.8384 376.158 83.6574 460.293 103.621C565.462 128.575 557.629 180.043 601.139 257.516Z" fill="#E87C33" stroke="white" stroke-width="3"/>
<path d="M614.323 248.991C642.243 298.704 725.953 242.441 747.323 228.709L746.234 102.135C636.488 103.269 433.867 109.541 501.351 125.553C585.707 145.569 579.423 186.851 614.323 248.991Z" fill="#E87C33" stroke="white" stroke-opacity="0.5" stroke-width="3"/>
</g>
<defs>
<clipPath id="clip0_24_3409">
<rect width="660" height="362" fill="white"/>
</clipPath>
</defs>
</svg>
