<svg width="540" height="292" viewBox="0 0 540 292" fill="none" xmlns="http://www.w3.org/2000/svg">
<g clip-path="url(#clip0_24_3181)">
<path fill-rule="evenodd" clip-rule="evenodd" d="M-909.843 332.461L-728.784 667.69L-646.837 637.921L-635.229 638.896L-596.453 612.839L-559.559 585.667L-549.72 573.108L-505.816 566.017L-478.991 549.397L-397.116 522.651L-371.81 489.804L-347.004 483.651L-324.093 465.31L-282.334 448.723L-244.39 428.229L-207.545 402.149L-195.024 381.535L-187.95 371.748L-172.753 358.851L-136.993 338.259L-94.4422 325.506L-14.8021 283.77L27.2175 267.468L39.8403 247.438L66.4481 239.887L140.475 193.085L175.529 176.709L194.298 175.949L197.5 197.66L227.347 181.114L247.709 175.017L273.164 160.203L295.483 154.968L311.32 146.414L323.449 137.306L337.907 122.252L343.846 119.045L362.443 123.491L369.312 112.536L390.079 106.007L395.022 97.7973L405.917 97.4533L413.795 81.2646L428.229 77.4111L438.139 71.0997L444.929 57.6301L459.466 45.0902L498.974 15.6542L521.186 7.06679L542.679 -8.37728L357.165 -351.854L357.166 -351.855L176.107 -687.084L94.16 -657.315L82.5518 -658.291L43.7765 -632.233L6.88201 -605.061L-2.95653 -592.502L-46.8609 -585.411L-73.6857 -568.792L-155.561 -542.045L-180.867 -509.198L-205.673 -503.046L-228.584 -484.704L-270.343 -468.117L-308.287 -447.623L-345.132 -421.543L-357.653 -400.929L-364.726 -391.142L-379.923 -378.246L-415.683 -357.653L-458.235 -344.9L-537.875 -303.164L-579.894 -286.862L-592.517 -266.833L-619.125 -259.281L-693.152 -212.479L-728.206 -196.104L-746.974 -195.343L-750.177 -217.055L-780.024 -200.508L-800.385 -194.412L-825.841 -179.598L-848.159 -174.363L-863.997 -165.809L-876.126 -156.701L-890.584 -141.646L-896.523 -138.439L-915.12 -142.885L-921.989 -131.93L-942.756 -125.401L-947.699 -117.191L-958.594 -116.847L-966.472 -100.659L-980.906 -96.8053L-990.816 -90.4939L-997.606 -77.0242L-1012.14 -64.4844L-1051.65 -35.0484L-1073.86 -26.461L-1095.36 -11.0169L-909.843 332.461Z" fill="#F68B1A"/>
<path d="M530.023 1.35017L543.354 -7.12829L538.899 -15.3763L525.212 -7.55773C524.432 -0.317234 515.571 6.17327 512.27 7.95627C508.969 9.73928 503.199 7.74118 501.852 7.61618C500.505 7.49118 487.961 14.2666 483.365 17.601C478.77 20.9354 479.436 26.1162 478.776 26.4728C478.116 26.8294 467.829 30.6796 465.67 31.4194C463.943 32.0113 460.5 36.0586 458.994 38.0083C460.118 43.8794 455.708 45.6082 453.362 45.7387C440.23 49.8478 439.701 54.3954 438.287 62.8307C436.873 71.266 433.698 71.7026 433.368 71.8809C427.046 71.5448 418.691 73.1305 415.304 73.9653C406.186 77.6112 412.424 89.1595 404.705 94.6068C402.379 96.2488 395.914 94.3829 392.736 92.9736C393.654 95.4615 389.499 107.508 383.782 107.186C379.208 106.929 370.578 107.214 366.835 107.389C368.036 113.56 364.536 119.712 361.895 121.139C359.254 122.565 350.282 120.165 349.213 118.186C348.143 116.206 340.67 113.423 341.205 114.413C341.633 115.205 338.795 117.846 337.322 119.067C337.501 119.397 336.587 120.231 331.506 120.93C327.188 122.41 322.222 135.321 319.581 136.747C317.468 137.888 314.686 137.686 313.56 137.442C313.263 145.103 309.901 145.669 308.257 144.994C307.401 144.462 304.185 143.613 298.169 144.476C290.65 145.554 296.095 153.268 293.732 152.839C291.368 152.411 281.815 152.882 274.804 154.112C267.792 155.342 265.817 161.949 258.429 167.218C251.041 172.487 238.233 170.881 231.4 172.44C224.567 174 215.177 185.038 208.449 189.95C201.721 194.863 196.994 194.006 196.691 195.023C196.447 195.836 194.41 200.801 193.421 203.181C203.403 204.609 226.411 188.205 236.667 179.824C244.88 180.503 261.155 173.844 268.266 170.429C273.966 159.509 290.113 158.772 297.474 159.768C296.815 151.6 304.986 151.307 309.154 152.181C317.388 153.531 317.458 147.554 316.463 144.398C321.364 146.524 323.62 144.226 324.135 142.811C332.33 131.14 335.044 126.691 337.737 126.941C340.431 127.191 341.903 125.969 342.894 125.434C343.686 125.006 344.593 122.528 344.947 121.342C345.438 120.935 346.837 120.577 348.506 122.403C350.174 124.23 357.387 127.267 360.784 128.557C368.49 130.192 370.286 119.306 370.221 113.658L377.945 113.748C386.828 114.406 390.454 112.959 391.156 112.154C394.203 110.849 396.075 103.104 396.63 99.3943C403.952 102.686 414.191 102.696 413.797 90.1227C413.402 77.5497 431.954 80.3162 433.274 79.603C439.739 80.203 441.029 77.119 440.867 75.5021C445.586 58.9741 450.695 55.2765 452.661 55.4938C465.443 51.9998 464.941 47.4402 463.093 45.5972L470.785 39.3116C472.798 39.2476 479.921 36.2244 483.231 34.7208C484.785 24.3345 499.72 18.1432 506.993 16.3458C520.656 19.5361 528.039 7.67802 530.023 1.35017Z" fill="#F68B1A"/>
<path d="M195.09 170.742C195.777 171.224 194.488 178.313 194.666 178.643C182.572 178.356 170.745 183.039 166.343 185.417C151.951 184.666 146.041 192.83 144.885 197.006C131.47 197.433 135.113 206.546 118.072 214.471C106.721 225.035 94.737 228.638 90.164 229.119C88.4556 237.325 79.8737 241.121 75.7963 241.993C48.5592 242.724 42.1805 249.494 42.3958 252.788C34.0115 253.055 34.1279 267.482 30.5492 271.119C26.9704 274.757 21.782 269.888 21.4519 270.066C21.1218 270.244 17.7212 274.212 11.8316 279.098C7.11989 283.006 -6.38646 286.948 -12.5507 288.431C-18.3982 294.658 -39.8564 304.457 -49.8545 308.579C-56.0217 315.319 -50.3832 313.126 -71.1868 318.822C-91.9903 324.517 -84.9993 327.987 -92.8492 329.243C-99.1291 330.248 -108.908 336.354 -113.013 339.281C-114.699 339.055 -118.634 338.822 -120.889 339.7C-123.144 340.577 -124.554 342.389 -124.976 343.186C-125.689 341.866 -129.679 341.321 -131.584 341.214C-150.025 347.338 -161.699 360.462 -162.359 360.819C-163.019 361.176 -161.824 361.809 -168.024 362.174C-174.223 362.538 -174.164 369.752 -174.494 369.931C-187.071 370.33 -186.326 378.026 -187.416 380.745C-188.506 383.465 -197.01 390.615 -200.232 394.913C-203.455 399.211 -205.985 409.527 -208.903 412.808C-211.238 415.433 -226.941 422.835 -234.501 426.207C-235.512 431.442 -256.21 440.49 -260.376 441.461C-264.542 442.433 -266.721 447.872 -268.246 447.417C-269.771 446.962 -283.61 455.289 -301.291 458.871C-315.435 461.737 -330.513 472.665 -336.283 477.771C-339.824 493.322 -354.843 490.779 -360.079 489.771C-364.267 488.964 -367.7 491.187 -368.893 492.4C-370.347 494.18 -373.587 497.919 -374.908 498.632C-376.558 499.524 -379.801 508.521 -381.604 509.92C-383.046 511.04 -384.982 511.035 -385.77 510.892C-386.853 519.149 -389.316 520.905 -394.315 527.441C-398.314 532.669 -415.594 532.256 -423.734 531.396C-427.894 537.905 -436.1 538.502 -442.577 540.721C-447.758 542.497 -450.458 544.552 -451.16 545.357C-457.02 545.823 -471.351 549.187 -481.788 558.916C-492.226 568.645 -503.933 570.024 -508.481 569.497C-520.036 575.738 -537.544 574.113 -541.888 574.754C-546.232 575.396 -554.459 580.692 -554.103 581.351C-553.746 582.011 -553.992 590.242 -554.652 590.598C-555.18 590.884 -556.448 590.432 -557.015 590.17C-561.157 595.135 -574.548 605.606 -580.726 610.221L-613.229 628.203C-620.993 628.987 -630.242 638.812 -633.896 643.627L-638.187 645.945L-638.722 644.955C-636.35 629.609 -664.425 655.001 -666.075 655.893C-667.396 656.606 -672.131 655.47 -674.334 654.813L-673.37 653.44C-672.888 652.753 -674.749 646.939 -673.554 647.573C-672.598 648.079 -670.158 647.017 -669.058 646.423C-643.875 625.15 -644.503 631.882 -643.612 633.532C-642.721 635.182 -642.464 638.026 -640.635 637.465C-639.172 637.015 -629.585 627.66 -624.974 623.039C-622.636 622.629 -617.546 621.158 -615.882 618.555C-613.802 615.3 -585.128 603.649 -584.521 601.616C-583.913 599.583 -568.628 589.197 -565.201 586.067C-562.46 583.564 -561.589 581.701 -561.497 581.083C-561.149 581.464 -560.22 582.184 -559.285 582.02C-558.117 581.815 -559.139 575.974 -559.092 572.113C-559.055 569.024 -550.714 566.309 -546.548 565.337C-538.414 567.764 -513.927 561.783 -511.92 561.552C-509.913 561.32 -504.295 563.827 -499.066 559.297C-493.836 554.768 -474.537 543.919 -472.735 542.519C-470.932 541.119 -458.586 538.713 -454.09 537.563C-449.594 536.413 -452.922 537.358 -448.683 533.364C-444.444 529.37 -439.004 531.546 -435.194 529.915C-432.147 528.61 -429.135 525.079 -428.011 523.477C-413.83 526.047 -411.063 523.274 -402.019 522.651C-392.974 522.028 -390.403 502.313 -390.225 502.643C-390.047 502.973 -385.881 502.002 -384.078 500.602C-382.276 499.202 -379.667 491.4 -379.185 490.713C-378.703 490.027 -378.524 490.357 -375.48 485.729C-373.045 482.027 -369.404 481.453 -367.888 481.628C-364.338 482.411 -355.806 483.627 -350.076 482.237C-342.912 480.499 -341.65 472.572 -340.56 469.852C-339.471 467.133 -329.059 461.935 -328.399 461.579C-322.023 455.067 -313.858 452.447 -310.572 451.951C-300.431 449.883 -279.88 442.193 -270.873 438.607C-271.004 434.416 -249.336 429.532 -243.142 423.629C-238.188 418.908 -236.526 416.931 -236.315 416.532C-225.164 413.493 -215.643 406.646 -212.876 403.873C-210.11 401.1 -208.88 386.797 -205.222 385.674C-202.296 384.776 -195.155 374.839 -191.95 369.982C-191.301 358.551 -184.007 361.004 -183.525 360.317C-183.043 359.63 -179.636 361.2 -179.689 359.524C-179.741 357.847 -177.509 354.085 -174.512 353.318C-171.515 352.552 -168.543 350.947 -167.883 350.591C-164.713 344.617 -147.494 337.022 -143.533 334.882L-137.261 331.494C-134.884 330.211 -131.526 332.375 -130.144 333.617C-130.149 329.187 -122.492 329.626 -118.663 330.4C-116.37 326.434 -109.785 324.468 -106.778 323.981C-103.671 323.155 -96.4816 320.465 -92.5832 316.314C-87.7102 311.125 -78.8437 310.172 -75.9982 309.914C-73.1527 309.655 -62.1798 306.286 -57.7363 303.46C-53.2928 300.634 -56.0389 298.707 -53.8537 298.806C-51.6685 298.904 -25.5889 284.818 -21.8319 281.511C-18.8263 278.864 -12.9605 277.145 -10.4033 276.617C4.55449 273.993 13.9596 264.879 16.7924 260.649C19.417 262.982 22.6303 263.037 23.909 262.773C28.2794 262.969 30.4267 251.155 31.3119 247.267C32.1971 243.379 34.0522 243.656 35.0689 243.959C35.8822 244.202 37.3885 242.99 38.0399 242.354C41.4609 233.687 61.9139 232.87 71.6452 232.728C81.3765 232.587 84.3622 220.745 85.3525 220.21C86.3429 219.675 94.8794 218.901 97.012 217.323C98.7181 216.06 108.437 208.737 113.083 205.233C114.658 205.519 119.423 204.025 125.879 195.765C132.334 187.505 137.473 187.229 139.235 188.124C141.179 181.618 145.324 178.869 147.153 178.308C149.741 175.205 161.023 176.356 162.014 175.821C168.867 169.562 194.403 170.261 195.09 170.742Z" fill="#F68B1A"/>
<path d="M-678.968 646.234C-679.093 647.581 -677.773 646.868 -677.264 647.019L-688.819 653.26C-691.035 655.735 -696.418 660.348 -700.221 658.992C-704.023 657.636 -705.428 660.668 -705.655 662.353C-706.875 661.989 -720.301 668.132 -726.861 671.25L-731.851 662.011C-730.735 660.13 -710.288 653.774 -710.163 652.428C-710.062 651.351 -709.275 650.386 -708.895 650.038C-707.379 650.214 -703.747 650.412 -701.349 649.798C-698.351 649.032 -695.407 646.589 -694.291 644.708C-693.175 642.826 -680.755 637.397 -679.23 637.852C-677.705 638.307 -678.973 640.697 -678.69 644.38C-678.407 648.062 -678.842 644.888 -678.968 646.234Z" fill="#F68B1A"/>
<path d="M44.206 96.2511C114.79 87.8327 140.011 -18.5304 143.799 -70.6596L-61.9429 -125.788C-113.037 1.14631 -202.559 237.496 -151.896 167.421C-88.5673 79.8272 -44.0239 106.774 44.206 96.2511Z" fill="#E87C33"/>
<path d="M44.0215 120.604C114.379 130.741 166.27 34.5297 183.421 -14.843L-1.04251 -121.343C-83.2486 -11.9579 -230.892 193.169 -163.819 138.594C-79.9768 70.3752 -43.9256 107.933 44.0215 120.604Z" fill="#E87C33" stroke="white" stroke-width="3"/>
<path d="M45.2894 104.956C101.723 113.086 108.077 12.4257 110.201 -12.8871L9.14383 -89.1083C-56.7931 -1.37124 -175.217 163.159 -121.418 119.385C-54.1689 64.6676 -25.2524 94.7922 45.2894 104.956Z" fill="#E87C33" stroke="white" stroke-opacity="0.5" stroke-width="3"/>
</g>
<defs>
<clipPath id="clip0_24_3181">
<rect width="540" height="292" fill="white"/>
</clipPath>
</defs>
</svg>
