<svg width="1069" height="292" viewBox="0 0 1069 292" fill="none" xmlns="http://www.w3.org/2000/svg">
<mask id="mask0_36_39" style="mask-type:luminance" maskUnits="userSpaceOnUse" x="2" y="0" width="163" height="75">
<path d="M161.276 74.7446C161.276 74.7446 170.874 57.9769 158.807 35.5335C146.739 13.0909 97.7928 9.59925 83.9978 1.92624C73.309 -4.01912 87.956 15.0147 87.956 15.0147C87.956 15.0147 52.8248 20.0996 41.5299 11.4461C35.5482 6.86407 39.4904 15.1068 43.9997 20.7783C46.7662 24.2573 51.043 27.5123 51.043 27.5123C51.043 27.5123 19.1 32.8 10.2018 31.0884C6.03766 30.2871 12.9036 39.1055 20.2673 41.4763C28.6385 44.1726 33.3211 44.8184 33.3211 44.8184C33.3211 44.8184 11.4211 56.4454 4.16691 56.1098C-3.08755 55.7743 11.1305 71.7686 40.0905 62.3282C62.3869 55.06 133.724 25.351 161.276 74.7446Z" fill="white"/>
</mask>
<g mask="url(#mask0_36_39)">
<path d="M161.276 74.7446C161.276 74.7446 170.874 57.9769 158.807 35.5335C146.739 13.0909 97.7928 9.59925 83.9978 1.92624C73.309 -4.01912 87.956 15.0147 87.956 15.0147C87.956 15.0147 52.8248 20.0996 41.5299 11.4461C35.5482 6.86407 39.4904 15.1068 43.9997 20.7783C46.7662 24.2573 51.043 27.5123 51.043 27.5123C51.043 27.5123 19.1 32.8 10.2018 31.0884C6.03766 30.2871 12.9036 39.1055 20.2673 41.4763C28.6385 44.1726 33.3211 44.8184 33.3211 44.8184C33.3211 44.8184 11.4211 56.4454 4.16691 56.1098C-3.08755 55.7743 11.1305 71.7686 40.0905 62.3282C62.3869 55.06 133.724 25.351 161.276 74.7446Z" fill="url(#paint0_linear_36_39)"/>
</g>
<mask id="mask1_36_39" style="mask-type:luminance" maskUnits="userSpaceOnUse" x="0" y="56" width="84" height="148">
<path d="M83.7387 56.6072C83.7387 56.6072 42.7915 59.3796 15.084 105.271C-16.7389 157.98 14.6503 203.691 14.6503 203.691C14.6503 203.691 -10.9557 117.966 83.7387 56.6072Z" fill="white"/>
</mask>
<g mask="url(#mask1_36_39)">
<path d="M83.7387 56.6072C83.7387 56.6072 42.7915 59.3796 15.084 105.271C-16.7389 157.98 14.6503 203.691 14.6503 203.691C14.6503 203.691 -10.9557 117.966 83.7387 56.6072Z" fill="url(#paint1_radial_36_39)"/>
</g>
<mask id="mask2_36_39" style="mask-type:luminance" maskUnits="userSpaceOnUse" x="27" y="86" width="45" height="183">
<path d="M71.5676 86.7829C71.5676 86.7829 -19.1288 161.451 60.7748 268.175C60.7748 268.175 16.7425 186.005 71.5676 86.7829Z" fill="white"/>
</mask>
<g mask="url(#mask2_36_39)">
<path d="M71.5676 86.7829C71.5676 86.7829 -19.1288 161.451 60.7748 268.175C60.7748 268.175 16.7425 186.005 71.5676 86.7829Z" fill="url(#paint2_radial_36_39)"/>
</g>
<mask id="mask3_36_39" style="mask-type:luminance" maskUnits="userSpaceOnUse" x="60" y="111" width="24" height="135">
<path d="M80.6984 111.551C80.6984 111.551 32.7543 189.856 83.4927 245.766C83.4927 245.766 58.6142 197.705 80.6984 111.551Z" fill="white"/>
</mask>
<g mask="url(#mask3_36_39)">
<path d="M80.6984 111.551C80.6984 111.551 32.7543 189.856 83.4927 245.766C83.4927 245.766 58.6142 197.705 80.6984 111.551Z" fill="url(#paint3_radial_36_39)"/>
</g>
<mask id="mask4_36_39" style="mask-type:luminance" maskUnits="userSpaceOnUse" x="143" y="125" width="37" height="52">
<path d="M156.105 125.559C156.105 125.559 144.237 127.161 143.475 144.817C142.712 162.474 156.312 175.439 168.1 176.832C179.887 178.225 186.601 167.898 170.173 155.445C159.417 147.291 152.981 131.544 156.105 125.559Z" fill="white"/>
</mask>
<g mask="url(#mask4_36_39)">
<path d="M156.105 125.559C156.105 125.559 144.237 127.161 143.475 144.817C142.712 162.474 156.312 175.439 168.1 176.832C179.887 178.225 186.601 167.898 170.173 155.445C159.417 147.291 152.981 131.544 156.105 125.559Z" fill="url(#paint4_linear_36_39)"/>
</g>
<path d="M156.459 221.755C136.526 226.223 119.285 233.867 107.421 242.637C108.294 239.385 114.509 234.698 118.734 231.75C144.38 213.857 191.299 208.604 213.141 219.91C213.414 220.052 213.936 220.483 214.095 220.736C199.164 216.806 178.481 216.819 156.459 221.755ZM235.147 241.723C233.585 234.755 228.876 225.847 219.43 222.388C223.13 215.579 223.583 208.821 219.349 202.979C210.225 190.391 185.674 185.685 160.344 188.544C159.223 188.67 156.451 186.478 155.483 185.907C144.998 179.713 135.998 170.916 130.854 159.778C126.076 149.428 124.441 136.329 132.53 127.136C137.302 121.713 144.501 119.391 151.4 118.083C159.497 116.549 168.131 116.492 176.258 117.812C177.105 117.95 185.269 119.642 185.061 120.816C185.62 117.656 184.664 114.845 182.743 112.408C178.108 106.528 168.036 102.797 161.138 101.391C160.111 101.218 158.013 100.908 158.006 100.908C157.919 100.903 157.749 100.879 157.75 100.875C148.195 99.4799 138.005 99.6152 126.572 102.136C116.205 104.422 107.217 108.16 100.213 112.47C99.8479 112.69 99.498 112.928 99.1396 113.157C98.5183 113.556 97.903 113.957 97.3164 114.365C94.5331 116.358 92.0413 118.677 90.0576 121.46C84.3489 129.47 84.4165 141.597 94.6641 145.417C99.9755 147.397 106.928 147.773 112.274 147.698C114.912 161.368 118.366 187.88 110.337 206.075C105.742 209.344 101.705 213.039 98.444 217.167C85.7553 233.222 90.3382 243.845 98.493 250.576C92.3186 257.324 91.5731 267.711 93.0353 274.237C97.0916 292.333 130.853 296.321 171.147 287.29C211.441 278.258 239.203 259.82 235.147 241.723Z" fill="#102D5D"/>
<path d="M105.791 107.263C132.857 92.343 158.244 99.5985 158.279 99.4945C159.83 94.9556 158.907 84.1849 153.803 82.3854C140.863 77.8228 122.574 89.7989 120.194 76.9336C119.624 73.8544 120.73 71.2663 122.839 69.1955L123.422 68.6799C123.387 68.7036 123.359 68.7256 123.325 68.7492C123.406 68.6774 123.496 68.6106 123.58 68.5405L123.422 68.6799C127.175 66.1273 135.792 62.9704 151.351 70.7237C151.351 70.7237 150.21 63.5257 136.032 59.215C135.637 59.0916 135.244 58.9657 134.841 58.8541C134.766 58.833 134.703 58.8102 134.627 58.789L134.616 58.7983C130.965 57.8052 127.07 57.271 122.999 57.3344C102.744 57.653 86.5387 71.6644 86.805 88.6316C86.9478 97.7111 91.8062 105.77 99.3727 111.275C99.3727 111.275 102.972 108.817 105.791 107.263Z" fill="#102D5D"/>
<path d="M372.56 225.499V185.546L351.288 225.499H343.081L321.809 185.546V225.499H306.691V149.912H320.837L347.184 201.419L373.532 149.912H387.678V225.499H372.56ZM397.593 225.499L433.011 149.912H443.378L478.688 225.499H463.354L455.795 209.086H420.593L413.035 225.499H397.593ZM426.64 195.912H449.749L438.194 170.86L426.64 195.912ZM479.74 220.316L488.27 208.222C488.558 208.438 488.99 208.726 489.566 209.086C490.142 209.445 490.862 209.805 491.726 210.165C492.589 210.525 493.525 210.849 494.533 211.137C495.613 211.353 496.729 211.461 497.881 211.461C500.04 211.461 501.732 210.993 502.956 210.057C504.179 209.05 505.079 207.862 505.655 206.494C506.231 205.054 506.555 203.471 506.627 201.743C506.771 200.015 506.843 198.395 506.843 196.884V149.912H521.96V198.395C522.104 204.514 521.025 209.733 518.721 214.053C516.417 218.3 513.07 221.431 508.679 223.447C504.935 225.175 500.976 226.039 496.801 226.039C492.769 226.039 489.242 225.391 486.218 224.095C483.195 222.799 481.035 221.539 479.74 220.316ZM535.418 187.705C535.418 181.802 536.282 176.475 538.01 171.724C539.81 166.973 542.365 162.941 545.677 159.63C549.06 156.318 553.127 153.799 557.879 152.071C562.63 150.272 567.957 149.372 573.86 149.372C579.763 149.372 585.09 150.272 589.841 152.071C594.592 153.799 598.624 156.318 601.935 159.63C605.247 162.941 607.766 166.973 609.494 171.724C611.294 176.475 612.193 181.802 612.193 187.705C612.193 193.608 611.294 198.935 609.494 203.686C607.766 208.438 605.247 212.505 601.935 215.888C598.624 219.2 594.592 221.755 589.841 223.555C585.09 225.283 579.763 226.147 573.86 226.147C567.957 226.147 562.63 225.283 557.879 223.555C553.127 221.755 549.06 219.2 545.677 215.888C542.365 212.505 539.81 208.438 538.01 203.686C536.282 198.935 535.418 193.608 535.418 187.705ZM573.86 212.109C589.265 212.109 596.968 203.974 596.968 187.705C596.968 171.508 589.265 163.409 573.86 163.409C558.383 163.409 550.644 171.508 550.644 187.705C550.644 203.974 558.383 212.109 573.86 212.109ZM625.657 149.912H657.62C660.356 149.912 663.415 150.2 666.799 150.775C670.254 151.351 673.457 152.539 676.409 154.339C679.432 156.067 681.952 158.586 683.968 161.898C685.983 165.137 686.991 169.456 686.991 174.855C686.991 180.398 685.731 185.114 683.212 189.001C680.692 192.816 677.129 195.624 672.522 197.424L692.39 225.499H674.681L656.324 199.799H640.775V225.499H625.657V149.912ZM657.296 185.762C660.32 185.762 662.767 185.51 664.639 185.006C666.511 184.502 667.95 183.782 668.958 182.846C670.038 181.838 670.758 180.686 671.118 179.391C671.55 178.023 671.766 176.511 671.766 174.855C671.766 173.2 671.55 171.724 671.118 170.428C670.758 169.132 670.038 168.017 668.958 167.081C667.95 166.073 666.511 165.317 664.639 164.813C662.767 164.309 660.32 164.057 657.296 164.057H640.775V185.762H657.296ZM707.566 225.499V149.912H722.683V225.499H707.566ZM735.036 149.912H799.609V163.949H774.881V225.499H759.764V163.949H735.036V149.912ZM800.732 225.499L836.15 149.912H846.516L881.826 225.499H866.493L858.934 209.086H823.732L816.173 225.499H800.732ZM829.779 195.912H852.887L841.333 170.86L829.779 195.912ZM894.108 225.499V149.912H909.226V225.499H894.108ZM929.462 149.912H961.424C964.16 149.912 967.219 150.2 970.603 150.775C974.058 151.351 977.261 152.539 980.213 154.339C983.236 156.067 985.756 158.586 987.772 161.898C989.787 165.137 990.795 169.456 990.795 174.855C990.795 180.398 989.535 185.114 987.016 189.001C984.496 192.816 980.933 195.624 976.326 197.424L996.194 225.499H978.485L960.128 199.799H944.579V225.499H929.462V149.912ZM961.1 185.762C964.124 185.762 966.571 185.51 968.443 185.006C970.315 184.502 971.754 183.782 972.762 182.846C973.842 181.838 974.562 180.686 974.922 179.391C975.354 178.023 975.57 176.511 975.57 174.855C975.57 173.2 975.354 171.724 974.922 170.428C974.562 169.132 973.842 168.017 972.762 167.081C971.754 166.073 970.315 165.317 968.443 164.813C966.571 164.309 964.124 164.057 961.1 164.057H944.579V185.762H961.1ZM1063.31 149.912V163.949H1023.14V180.686H1061.8V194.724H1023.14V211.461H1064.71V225.499H1008.02V149.912H1063.31Z" fill="#56AED8"/>
<path d="M339.3 57.7944C342.035 57.7944 345.095 58.0823 348.478 58.6582C351.862 59.2341 355.029 60.4219 357.981 62.2216C361.004 63.9493 363.524 66.4689 365.539 69.7804C367.555 73.0198 368.563 77.3391 368.563 82.7382C368.563 88.1372 367.555 92.4925 365.539 95.804C363.524 99.0434 361.004 101.563 357.981 103.363C355.029 105.09 351.862 106.242 348.478 106.818C345.095 107.394 342.035 107.682 339.3 107.682H322.347V133.382H307.229V57.7944H339.3ZM322.347 93.6443H338.868C341.891 93.6443 344.339 93.3924 346.211 92.8884C348.082 92.3845 349.522 91.6647 350.53 90.7288C351.61 89.721 352.33 88.5692 352.69 87.2734C353.121 85.9056 353.337 84.3939 353.337 82.7382C353.337 81.0824 353.121 79.6067 352.69 78.3109C352.33 76.9431 351.61 75.7913 350.53 74.8555C349.522 73.9197 348.082 73.1998 346.211 72.6959C344.339 72.12 341.891 71.832 338.868 71.832H322.347V93.6443ZM374.217 133.382L409.635 57.7944H420.001L455.311 133.382H439.978L432.419 116.968H397.217L389.658 133.382H374.217ZM403.264 103.795H426.372L414.818 78.7428L403.264 103.795ZM464.246 57.7944H496.208C498.944 57.7944 502.003 58.0823 505.387 58.6582C508.842 59.2341 512.046 60.4219 514.997 62.2216C518.021 63.9493 520.54 66.4689 522.556 69.7804C524.571 73.0198 525.579 77.3391 525.579 82.7382C525.579 88.2812 524.319 92.9964 521.8 96.8838C519.28 100.699 515.717 103.507 511.11 105.306L530.978 133.382H513.269L494.912 107.682H479.363V133.382H464.246V57.7944ZM495.884 93.6443C498.908 93.6443 501.355 93.3924 503.227 92.8884C505.099 92.3845 506.538 91.6647 507.546 90.7288C508.626 89.721 509.346 88.5692 509.706 87.2734C510.138 85.9056 510.354 84.3939 510.354 82.7382C510.354 81.0824 510.138 79.6067 509.706 78.3109C509.346 77.0151 508.626 75.8993 507.546 74.9635C506.538 73.9557 505.099 73.1998 503.227 72.6959C501.355 72.1919 498.908 71.94 495.884 71.94H479.363V93.6443H495.884ZM534.924 57.7944H599.497V71.832H574.769V133.382H559.652V71.832H534.924V57.7944ZM611.85 133.382V57.7944H626.967V133.382H611.85ZM702.49 57.7944V71.832H662.32V88.5692H700.978V102.607H662.32V119.344H703.893V133.382H647.203V57.7944H702.49Z" fill="#102D5D"/>
<defs>
<linearGradient id="paint0_linear_36_39" x1="42.3059" y1="14.3097" x2="136.144" y2="91.305" gradientUnits="userSpaceOnUse">
<stop stop-color="#F68B11"/>
<stop offset="0.447107" stop-color="#ED1C24"/>
<stop offset="0.703445" stop-color="#D11920"/>
<stop offset="0.898766" stop-color="#A21419"/>
<stop offset="1" stop-color="#A21419"/>
</linearGradient>
<radialGradient id="paint1_radial_36_39" cx="0" cy="0" r="1" gradientUnits="userSpaceOnUse" gradientTransform="translate(105.981 71.6701) rotate(128.211) scale(143.924 143.924)">
<stop stop-color="#C2EBFB"/>
<stop offset="0.165291" stop-color="#C2EBFB"/>
<stop offset="1" stop-color="#55ADD7"/>
</radialGradient>
<radialGradient id="paint2_radial_36_39" cx="0" cy="0" r="1" gradientUnits="userSpaceOnUse" gradientTransform="translate(105.979 71.6693) rotate(128.211) scale(143.924 143.924)">
<stop stop-color="#C2EBFB"/>
<stop offset="0.165291" stop-color="#C2EBFB"/>
<stop offset="1" stop-color="#55ADD7"/>
</radialGradient>
<radialGradient id="paint3_radial_36_39" cx="0" cy="0" r="1" gradientUnits="userSpaceOnUse" gradientTransform="translate(105.979 71.6707) rotate(128.211) scale(143.924 143.924)">
<stop stop-color="#C2EBFB"/>
<stop offset="0.165291" stop-color="#C2EBFB"/>
<stop offset="1" stop-color="#55ADD7"/>
</radialGradient>
<linearGradient id="paint4_linear_36_39" x1="173.207" y1="178.35" x2="147.943" y2="137.447" gradientUnits="userSpaceOnUse">
<stop stop-color="#F68B11"/>
<stop offset="0.447107" stop-color="#ED1C24"/>
<stop offset="0.703445" stop-color="#D11920"/>
<stop offset="0.898766" stop-color="#A21419"/>
<stop offset="1" stop-color="#A21419"/>
</linearGradient>
</defs>
</svg>
